<?xml version="1.0" encoding="UTF-8"?>
<svg width="155px" height="70px" viewBox="0 0 155 70" version="1.1" xmlns="http://www.w3.org/2000/svg" xmlns:xlink="http://www.w3.org/1999/xlink">
    <title>Logo</title>
    <defs>
        <filter id="filter-1">
            <feColorMatrix in="SourceGraphic" type="matrix" values="0 0 0 0 0.831373 0 0 0 0 0.831373 0 0 0 0 0.800000 0 0 0 1.000000 0"></feColorMatrix>
        </filter>
    </defs>
    <g id="Escritorio" stroke="none" stroke-width="1" fill="none" fill-rule="evenodd">
        <g id="Inicio" transform="translate(-105.000000, -6304.000000)">
            <g id="Group" transform="translate(0.000000, 6204.000000)">
                <g transform="translate(105.000000, 100.000000)" id="Logo" filter="url(#filter-1)">
                    <g id="logo">
                        <g id="Group" transform="translate(69.727794, 37.215190)" fill="#014D76" fill-rule="nonzero">
                            <path d="M0.193638968,17.4255696 C0.193638968,16.1057595 0.465888252,14.8320253 1.01083095,13.6061392 C1.55577364,12.3802532 2.50398281,11.3209494 3.85501433,10.4277848 C5.20648997,9.53462025 6.81022923,9.08848101 8.6680086,9.08848101 C11.0036676,9.08848101 12.9049713,9.82348101 14.3732521,11.293481 C15.841533,12.763481 16.5752292,14.6525949 16.5752292,16.9599367 C16.5752292,19.5003165 15.7331662,21.5918987 14.0481519,23.2333544 C12.3631375,24.8752532 10.3308166,25.6966456 7.95074499,25.6966456 C6.39363897,25.6966456 5.00352436,25.2779747 3.77995702,24.4401899 C2.55638968,23.6024051 1.65303725,22.5794304 1.06901146,21.3694937 C0.485429799,20.16 0.193638968,18.8455063 0.193638968,17.4255696 Z M3.34604585,16.2772152 C3.34604585,17.8305063 3.5463467,19.2203165 3.94694842,20.4457595 C4.34710602,21.6716456 4.98131805,22.6560759 5.84869628,23.3994937 C6.7160745,24.1429114 7.70603152,24.5146203 8.81812321,24.5146203 C10.1300716,24.5146203 11.2146275,23.9962658 12.0709026,22.9586709 C12.9276218,21.9210759 13.3557593,20.3598101 13.3557593,18.2739873 C13.3557593,15.9112658 12.8912034,13.9751899 11.9625358,12.4666456 C11.0338682,10.9581013 9.69616046,10.2036076 7.95074499,10.2036076 C6.50467049,10.2036076 5.37570201,10.7250633 4.56428367,11.7675316 C3.75197708,12.810443 3.34604585,14.3132278 3.34604585,16.2772152 Z" id="Shape"></path>
                            <path d="M24.1156017,9.18816456 L24.4322636,9.40436709 C24.3656447,10.0476582 24.3154585,11.1902532 24.282149,12.8321519 L25.5332521,11.2513924 C25.9445129,10.7299367 26.3086963,10.3276582 26.6258023,10.044557 C26.9429083,9.76189873 27.3124212,9.54303797 27.7352292,9.38753165 C28.1575931,9.23202532 28.5915043,9.15493671 29.0365186,9.15493671 C29.5259456,9.15493671 29.9873926,9.25462025 30.4213037,9.45443038 L30.5381089,9.68702532 C30.3600143,11.1627848 30.260086,12.4608861 30.2374355,13.5813291 L29.4873066,13.5813291 C29.0422923,12.5605696 28.3250287,12.0501899 27.3350716,12.0501899 C26.6453438,12.0501899 26.0448854,12.2694937 25.5332521,12.7072152 C25.0216189,13.1458228 24.6796418,13.6947468 24.5068768,14.3548734 C24.3345559,15.015 24.2483954,15.8501266 24.2483954,16.8593671 L24.2483954,18.7063924 C24.2483954,19.039557 24.2706017,19.8547468 24.3150143,21.1524051 C24.3594269,22.4509494 24.4069484,23.1992405 24.4566905,23.3990506 C24.5064327,23.5984177 24.5841547,23.7459494 24.6898567,23.8398734 C24.7955587,23.9342405 24.9345702,23.998038 25.1068911,24.0317089 C25.279212,24.0644937 26.071533,24.1203165 27.484298,24.1978481 L27.6344126,24.3312025 L27.6344126,25.0298734 L27.484298,25.1796203 C26.004914,25.0910127 24.4589112,25.0467089 22.8467335,25.0467089 C21.5676504,25.0467089 20.2330516,25.0910127 18.842937,25.1796203 L18.6928223,25.0298734 L18.6928223,24.3312025 L18.842937,24.1978481 C19.9217192,24.1313924 20.530616,24.0813291 20.6696275,24.0481013 C20.8081948,24.0148734 20.9307736,23.9457595 21.0364756,23.8398734 C21.1421777,23.7348734 21.2141261,23.5736076 21.2532092,23.3574051 C21.2922923,23.1412025 21.3367049,22.4252532 21.3868911,21.210443 C21.4366332,19.9956329 21.4619484,19.0781013 21.4619484,18.4560759 L21.4619484,15.178038 C21.4619484,14.734557 21.439298,14.1298101 21.3953295,13.3642405 C21.3504728,12.5982278 21.3144986,12.1272785 21.2869628,11.9496203 C21.2594269,11.7728481 21.1728223,11.6421519 21.0284814,11.5588608 C20.8836963,11.4755696 20.5945702,11.4339241 20.1611032,11.4339241 L18.7598854,11.4175316 L18.6097708,11.2841772 L18.6097708,10.5686709 L18.7430086,10.4353165 C20.8677077,10.1810127 22.6584241,9.76455696 24.1156017,9.18816456 Z" id="Path"></path>
                            <path d="M30.9880086,2.63120253 L30.837894,2.4814557 L30.837894,1.78278481 L30.9715759,1.63259494 C33.0953868,1.38892405 34.885659,0.978227848 36.3432808,0.401392405 L36.6603868,0.601202532 C36.537808,1.8771519 36.4769628,4.43392405 36.4769628,8.27240506 L36.4769628,12.5158228 C36.6879226,12.2389241 37.0827507,11.8144937 37.6610029,11.2429747 C38.239255,10.6714557 38.7091404,10.2696203 39.0711032,10.0361392 C39.4317335,9.8035443 39.9273782,9.59841772 40.5558166,9.42031646 C41.1838109,9.24310127 41.8424499,9.15405063 42.5326218,9.15405063 C43.7890544,9.15405063 44.8927077,9.46462025 45.8435817,10.0862025 C46.7948997,10.7073418 47.500616,11.5362658 47.9625072,12.5738608 C48.4243983,13.6114557 48.6548997,14.7177215 48.6548997,15.8935443 C48.6548997,17.0139873 48.4630372,18.0794937 48.0797564,19.0887342 C47.6960315,20.0984177 47.2425788,20.930443 46.7198424,21.5848101 C46.40851,21.9622785 45.8577937,22.4394304 45.0681375,23.0158228 C43.5225788,24.1367089 42.434914,24.838038 41.8064756,25.1211392 C41.1780372,25.4042405 40.36351,25.5455696 39.362894,25.5455696 C38.5838968,25.5455696 37.8777364,25.4374684 37.2439685,25.2212658 C36.6097564,25.0050633 35.9537822,24.663481 35.2751576,24.1974051 L33.9241261,25.4618354 L33.3734097,25.2456329 C33.5848138,23.2267089 33.6905158,20.930443 33.6905158,18.3563924 L33.6905158,9.53639241 L33.6238968,6.34120253 C33.5905874,5.12107595 33.5546132,4.26424051 33.5155301,3.77025316 C33.476447,3.27626582 33.4240401,2.98563291 33.3574212,2.89658228 C33.2908023,2.80753165 33.1766619,2.74107595 33.015,2.69677215 C32.8537822,2.65379747 32.1782665,2.63120253 30.9880086,2.63120253 Z M36.4769628,14.513038 L36.4769628,20.7532278 C36.4769628,21.2751266 36.5018338,21.6158228 36.5520201,21.7770886 C36.6017622,21.9379114 36.8242693,22.1820253 37.2190974,22.5089873 C37.6139255,22.8363924 38.1224499,23.1194937 38.7455587,23.3578481 C39.3686676,23.5962025 40.0135387,23.7158228 40.680616,23.7158228 C42.2599284,23.7158228 43.4972636,23.1057595 44.3921777,21.8851899 C45.2870917,20.6646203 45.7347708,19.1170886 45.7347708,17.2425949 C45.7347708,16.0667722 45.5486819,15.026519 45.1760602,14.1222785 C44.8034384,13.218038 44.2442837,12.5273418 43.4994842,12.0501899 C42.7542407,11.573481 41.9148424,11.3346835 40.9808453,11.3346835 C39.8798567,11.3346835 38.9094413,11.6589873 38.0695989,12.308038 C37.2297564,12.9570886 36.6990258,13.6920886 36.4769628,14.513038 Z" id="Shape"></path>
                            <path d="M64.8526218,22.6006962 L64.3187822,23.7986709 C63.1622779,24.5420886 62.1305731,25.025 61.2241117,25.246519 C60.3176504,25.468481 59.5088968,25.5796835 58.7969628,25.5796835 C57.4623639,25.5796835 56.1970487,25.3187342 55.0019054,24.7972785 C53.8063181,24.2758228 52.8327937,23.3937342 52.0826648,22.1510127 C51.3320917,20.9087342 50.956361,19.4108228 50.956361,17.6577215 C50.956361,16.4929747 51.100702,15.4420886 51.3902722,14.5041772 C51.6793983,13.5671519 51.9827364,12.8706962 52.2998424,12.4156962 C52.6165043,11.9611392 53.1530086,11.456519 53.9093553,10.9013924 C54.665702,10.3467089 55.4664613,9.90278481 56.3116332,9.57006329 C57.156361,9.23734177 58.068596,9.07075949 59.0474499,9.07075949 C60.3820487,9.07075949 61.5580946,9.38443038 62.5755874,10.0108861 C63.5930802,10.6377848 64.307235,11.4396835 64.7189398,12.4156962 C65.1306447,13.3921519 65.3362751,14.4293038 65.3362751,15.5275949 C65.3362751,15.8713924 65.3198424,16.2041139 65.286533,16.5262025 L65.1031089,16.7091772 C64.3467622,16.8753165 63.3292693,16.986519 62.0501862,17.0418987 C60.7711032,17.0977215 59.9259312,17.1251899 59.5146705,17.1251899 L54.1593983,17.1251899 C54.1816046,19.4218987 54.7603009,21.1138608 55.8941547,22.2010759 C57.0288968,23.2882911 58.4190115,23.8318987 60.0649427,23.8318987 C60.8434957,23.8318987 61.591404,23.6985443 62.3086676,23.4327215 C63.0259312,23.1660127 63.7849427,22.7951899 64.5861461,22.3175949 L64.8526218,22.6006962 Z M54.1593983,15.7943038 C54.3596991,15.8275316 55.1298138,15.866519 56.4697421,15.9112658 C57.8101146,15.9555696 58.8027364,15.9772785 59.4476074,15.9772785 C60.9931662,15.9772785 61.9333811,15.9498101 62.2669198,15.8939873 C62.2775788,15.6277215 62.2837966,15.423038 62.2837966,15.2781646 C62.2837966,13.5587342 61.9333811,12.2801266 61.2329943,11.4423418 C60.5321633,10.605 59.5755158,10.1858861 58.3634957,10.1858861 C57.04,10.1858861 56.0082951,10.6577215 55.2688252,11.6005063 C54.5289112,12.5437342 54.1593983,13.941519 54.1593983,15.7943038 Z" id="Shape"></path>
                            <path d="M72.5431089,0.401392405 L72.8602149,0.601202532 C72.7380802,1.8771519 72.6767908,4.43392405 72.6767908,8.27240506 L72.6767908,16.076962 C73.0547421,15.855443 73.7999857,15.2976582 74.9120774,14.4049367 C76.0241691,13.5122152 77.1997708,12.4910127 78.4402149,11.3431013 C79.6802149,10.1947468 80.3166476,9.57050633 80.3504011,9.47037975 C81.2950573,9.50360759 81.8622063,9.52044304 82.051404,9.52044304 C82.3072206,9.52044304 82.8241834,9.50360759 83.6031805,9.47037975 L83.7532951,9.62056962 L83.7532951,10.2696203 L83.6196132,10.4193671 C83.0635673,10.4525949 82.6385387,10.5248101 82.343639,10.6355696 C82.0487393,10.7463291 81.4482808,11.1127215 80.5418195,11.7338608 C79.6353582,12.355443 78.5650143,13.1706329 77.330788,14.1798734 L75.7123926,15.4948101 C76.3017479,16.1828481 77.3330086,17.2616456 78.807063,18.7316456 C80.2806734,20.2016456 81.473596,21.3420253 82.3853868,22.1514557 C83.2971777,22.9613291 83.8923066,23.4247468 84.1707736,23.5412658 C84.4483524,23.6577848 84.7432521,23.7162658 85.0545845,23.7162658 L85.0545845,24.4317722 C84.6433238,24.5093038 83.5809742,24.8473418 81.8684241,25.4467722 C80.7114756,24.4481646 79.9773352,23.788481 79.666447,23.4663924 L78.4322206,22.201962 L76.9639398,20.720443 C76.5078223,20.2658861 75.8962607,19.6890506 75.1288109,18.9899367 L72.6767908,16.7268987 L72.6767908,18.7072785 C72.6767908,18.9518354 72.6989971,19.7364557 72.7434097,21.0620253 C72.7878223,22.3875949 72.8348997,23.1615823 72.885086,23.3831013 C72.9348281,23.6055063 73.0098854,23.7658861 73.1102579,23.8660127 C73.2106304,23.9661392 73.332765,24.0299367 73.477106,24.0574051 C73.621447,24.0853165 74.2223496,24.1322785 75.2789255,24.1987342 L75.4290401,24.3320886 L75.4290401,25.0307595 L75.2958023,25.1805063 C73.9052436,25.0918987 72.5653152,25.0475949 71.2751289,25.0475949 C69.9960458,25.0475949 68.661447,25.0918987 67.2713324,25.1805063 L67.1212178,25.0307595 L67.1212178,24.3320886 L67.2713324,24.1987342 C68.3501146,24.1322785 68.9590115,24.0822152 69.0980229,24.0489873 C69.2365903,24.0157595 69.3591691,23.9466456 69.4648711,23.8407595 C69.5701289,23.7357595 69.6425215,23.5744937 69.6816046,23.3582911 C69.7202436,23.1420886 69.7651003,22.4261392 69.8152865,21.2113291 C69.8650287,19.996519 69.8903438,19.0789873 69.8903438,18.456962 L69.8903438,9.83721519 L69.8237249,6.30886076 C69.7904155,5.07765823 69.7539971,4.22348101 69.7153582,3.74632911 C69.6762751,3.26962025 69.6234241,2.98651899 69.5568052,2.89791139 C69.4906304,2.8093038 69.3733811,2.74240506 69.2068338,2.69810127 C69.0398424,2.65379747 68.3665473,2.63164557 67.1882808,2.63164557 L67.0377221,2.48189873 L67.0377221,1.78322785 L67.171404,1.63303797 C69.295659,1.38892405 71.0863754,0.978227848 72.5431089,0.401392405 Z" id="Path"></path>
                        </g>
                        <path d="M52.5116905,62.6251899 C47.4695272,63.851962 42.4113754,63.3535443 37.9598997,61.5113924 C33.3800716,63.1143038 28.8730802,64.2622152 24.8062178,64.9090506 C31.324212,69.3846203 39.6524642,71.1753797 47.9456304,69.1582278 C59.1398281,66.4348734 67.1909456,57.5222785 69.3400716,46.9567089 C66.9320201,54.483038 60.7684384,60.6160127 52.5116905,62.6251899 Z" id="Path" fill="#014D76"></path>
                        <path d="M34.3087393,13.3762025 C32.8129226,13.7399367 31.37351,14.2148734 29.9962751,14.7890506 C30.841447,13.3837342 31.3433095,11.7471519 31.3832808,9.99139241 C31.5054155,4.59696203 27.2204871,0.124936709 21.8123639,0.00265822785 C16.4046848,-0.119177215 11.9216762,4.15525316 11.7990974,9.54968354 C11.6769628,14.944557 15.9618911,19.4165823 21.3691261,19.5388608 C21.6968911,19.5463924 22.0211032,19.5370886 22.3417622,19.5127215 C15.5959312,25.3196203 11.7684527,34.0877848 12.417765,43.2555696 C15.28149,44.3312658 19.2915043,44.8894937 24.0054585,44.9329114 C21.2354441,32.5123418 28.9259312,20.1081646 41.3765616,17.0791139 C49.6337536,15.0703797 57.9358023,17.6847468 63.546447,23.2603797 C56.7633095,14.8679114 45.5024928,10.6528481 34.3087393,13.3762025 Z" id="Path" fill="#ED1B31"></path>
                        <path d="M55.2324069,55.1644304 C53.830745,55.5051266 52.4268625,55.6601899 51.047851,55.6460127 C48.9502436,56.8315823 46.6296848,57.9905696 44.1172636,59.0901899 C43.4954871,59.3617722 42.8728223,59.6253797 42.2483811,59.8814557 C45.3408309,60.6217722 48.6504585,60.6594304 51.9525358,59.8562025 C59.9925501,57.9001899 65.7750716,51.4991772 67.3179656,43.9108228 C65.5894269,49.3163291 61.1628223,53.7214557 55.2324069,55.1644304 Z" id="Path" fill="#014D76"></path>
                        <path d="M42.1591117,19.7931646 C36.3712607,21.2011392 31.7536819,24.9133544 29.0445129,29.7127848 C31.0257593,28.3039241 33.4635673,27.498038 36.0830229,27.556962 C36.8873352,27.5755696 37.6703295,27.6739241 38.4248997,27.8453797 C40.6446418,25.2606962 43.667808,23.3201899 47.2354728,22.4518354 C54.7682951,20.6194304 59.4049713,23.7782911 62.3850573,26.0758861 C56.6269628,20.159557 50.6259312,17.733481 42.1591117,19.7931646 Z" id="Path" fill="#ED1B31"></path>
                        <path d="M51.4475645,43.8518987 C48.5953868,44.6724051 45.7325501,45.3697468 42.9123496,45.9448101 C44.5356304,44.2448734 45.5535673,41.9601266 45.6108596,39.4286076 C45.7334384,34.0337342 41.4480659,29.5617089 36.0399427,29.4398734 C30.6322636,29.318038 26.149255,33.5924684 26.0271203,38.9873418 C25.9431805,42.6893671 27.9346418,45.9563291 30.9409312,47.681962 C20.4258023,48.5534177 11.8777077,47.3837975 8.82744986,44.1474051 C6.48557307,41.6632911 7.80773639,38.4105063 11.8599427,35.1058861 C2.07495702,40.5986709 -2.45202006,46.6231013 1.32882521,50.5493038 C6.69164756,56.1182911 26.7346132,55.3575949 46.0976218,48.8502532 C56.487063,45.3591139 64.5666046,40.9220886 68.9989828,36.6999367 C64.5483954,39.3058861 58.5429226,41.8108228 51.4475645,43.8518987 Z" id="Path" fill="#014D76"></path>
                        <path d="M45.0423782,52.2350633 C31.2953438,58.0353165 17.0477794,60.0201266 13.2185244,56.6694304 C12.6820201,56.1998101 12.3786819,55.650443 12.2911891,55.0372785 C11.2186246,55.0053797 10.2024642,54.9331646 9.25203438,54.8201899 C6.5832808,57.8501266 5.90687679,60.4937342 7.82683381,62.1343038 C12.0140544,65.7136076 26.959341,63.1701266 41.2095702,56.4523418 C48.8552006,52.8477848 54.7443123,48.7749367 57.9167049,45.2208861 C54.6790258,47.5844937 50.2750716,50.026962 45.0423782,52.2350633 Z" id="Path" fill="#014D76"></path>
                    </g>
                </g>
            </g>
        </g>
    </g>
</svg>