<?xml version="1.0" encoding="UTF-8"?>
<svg width="65px" height="64px" viewBox="0 0 65 64" version="1.1" xmlns="http://www.w3.org/2000/svg" xmlns:xlink="http://www.w3.org/1999/xlink">
    <title>007-university</title>
    <defs>
        <filter id="filter-1">
            <feColorMatrix in="SourceGraphic" type="matrix" values="0 0 0 0 1.000000 0 0 0 0 1.000000 0 0 0 0 1.000000 0 0 0 1.000000 0"></feColorMatrix>
        </filter>
    </defs>
    <g id="Escritorio" stroke="none" stroke-width="1" fill="none" fill-rule="evenodd">
        <g id="007-university" transform="translate(-1108.000000, -1599.000000)" filter="url(#filter-1)">
            <g transform="translate(1108.000000, 1599.000000)">
                <path d="M63.9166667,64 L1.08333333,64 C0.485333333,64 0,63.552 0,63 L0,59 C0,58.448 0.485333333,58 1.08333333,58 L63.9166667,58 C64.5146667,58 65,58.448 65,59 L65,63 C65,63.552 64.5146667,64 63.9166667,64 Z M2.16666667,62 L62.8333333,62 L62.8333333,60 L2.16666667,60 L2.16666667,62 Z" id="Shape" fill="#000000" fill-rule="nonzero"></path>
                <path d="M61.9107143,60 L3.08928571,60 C2.488,60 2,59.552 2,59 L2,55 C2,54.448 2.488,54 3.08928571,54 L61.9107143,54 C62.512,54 63,54.448 63,55 L63,59 C63,59.552 62.512,60 61.9107143,60 Z M4.17857143,58 L60.8214286,58 L60.8214286,56 L4.17857143,56 L4.17857143,58 Z" id="Shape" fill="#000000" fill-rule="nonzero"></path>
                <path d="M17.9285714,55 L5.07142857,55 C4.48,55 4,54.552 4,54 L4,50 C4,49.448 4.48,49 5.07142857,49 L17.9285714,49 C18.52,49 19,49.448 19,50 L19,54 C19,54.552 18.52,55 17.9285714,55 Z M6.14285714,53 L16.8571429,53 L16.8571429,51 L6.14285714,51 L6.14285714,53 Z" id="Shape" fill="#000000" fill-rule="nonzero"></path>
                <path d="M15.9,23 L7.1,23 C6.4928,23 6,22.552 6,22 L6,18 C6,17.448 6.4928,17 7.1,17 L15.9,17 C16.5072,17 17,17.448 17,18 L17,22 C17,22.552 16.5072,23 15.9,23 L15.9,23 Z M8.2,21 L14.8,21 L14.8,19 L8.2,19 L8.2,21 Z" id="Shape" fill="#000000" fill-rule="nonzero"></path>
                <path d="M15.9001138,51 L7.0998606,51 C6.79405181,51 6.50144339,50.8757098 6.29353741,50.6571306 C6.08563143,50.4374799 5.98002839,50.143898 6.00312906,49.8471017 L8.20319234,21.9889639 C8.24719361,21.4307297 8.72570737,21 9.29992389,21 L13.7000505,21 C14.274267,21 14.7527808,21.4307297 14.796782,21.9889639 L16.9968453,49.8471017 C17.019946,50.1449695 16.915443,50.4385514 16.707537,50.6571306 C16.498531,50.8757098 16.2070226,51 15.9001138,51 L15.9001138,51 Z M8.28789478,48.8570663 L14.7120796,48.8570663 L12.6814212,23.1418622 L10.3185532,23.1418622 L8.28789478,48.8570663 Z" id="Shape" fill="#000000" fill-rule="nonzero"></path>
                <path d="M63.9156462,15 L1.08257982,15 C0.565832017,15 0.120583909,14.6389415 0.0209176658,14.1375308 C-0.0798319061,13.6361201 0.191000276,13.1336381 0.668748247,12.938645 L32.0852814,0.0819613585 C32.350697,-0.0273204528 32.6486124,-0.0273204528 32.9140279,0.0819613585 L64.3305611,12.938645 C64.8083091,13.1336381 65.0791412,13.6361201 64.979475,14.1375308 C64.8776421,14.6389415 64.432394,15 63.9156462,15 Z M6.53388999,12.8572194 L58.464336,12.8572194 L32.499113,2.23117032 L6.53388999,12.8572194 Z" id="Shape" fill="#000000" fill-rule="nonzero"></path>
                <path d="M58.9230769,19 L5.07692308,19 C4.48246154,19 4,18.552 4,18 L4,14 C4,13.448 4.48246154,13 5.07692308,13 L58.9230769,13 C59.5175385,13 60,13.448 60,14 L60,18 C60,18.552 59.5175385,19 58.9230769,19 Z M6.15384615,17 L57.8461538,17 L57.8461538,15 L6.15384615,15 L6.15384615,17 Z" id="Shape" fill="#000000" fill-rule="nonzero"></path>
                <path d="M59.9285714,55 L47.0714286,55 C46.48,55 46,54.552 46,54 L46,50 C46,49.448 46.48,49 47.0714286,49 L59.9285714,49 C60.52,49 61,49.448 61,50 L61,54 C61,54.552 60.52,55 59.9285714,55 Z M48.1428571,53 L58.8571429,53 L58.8571429,51 L48.1428571,51 L48.1428571,53 Z" id="Shape" fill="#000000" fill-rule="nonzero"></path>
                <path d="M57.9,23 L49.1,23 C48.4928,23 48,22.552 48,22 L48,18 C48,17.448 48.4928,17 49.1,17 L57.9,17 C58.5072,17 59,17.448 59,18 L59,22 C59,22.552 58.5072,23 57.9,23 Z M50.2,21 L56.8,21 L56.8,19 L50.2,19 L50.2,21 Z" id="Shape" fill="#000000" fill-rule="nonzero"></path>
                <path d="M57.9001138,51 L49.0998606,51 C48.7940518,51 48.5014434,50.8757098 48.2935374,50.6571306 C48.0856314,50.4374799 47.9800284,50.143898 48.0031291,49.8471017 L50.2031923,21.9889639 C50.2471936,21.4307297 50.7257074,21 51.2999239,21 L55.7000505,21 C56.274267,21 56.7527808,21.4307297 56.796782,21.9889639 L58.9968453,49.8471017 C59.019946,50.1449695 58.915443,50.4385514 58.707537,50.6571306 C58.498531,50.8757098 58.2070226,51 57.9001138,51 Z M50.2878948,48.8570663 L56.7120796,48.8570663 L54.6814212,23.1418622 L52.3185532,23.1418622 L50.2878948,48.8570663 Z" id="Shape" fill="#000000" fill-rule="nonzero"></path>
                <path d="M38.9285714,55 L26.0714286,55 C25.48,55 25,54.552 25,54 L25,50 C25,49.448 25.48,49 26.0714286,49 L38.9285714,49 C39.52,49 40,49.448 40,50 L40,54 C40,54.552 39.52,55 38.9285714,55 Z M27.1428571,53 L37.8571429,53 L37.8571429,51 L27.1428571,51 L27.1428571,53 Z" id="Shape" fill="#000000" fill-rule="nonzero"></path>
                <path d="M36.9,23 L28.1,23 C27.4928,23 27,22.552 27,22 L27,18 C27,17.448 27.4928,17 28.1,17 L36.9,17 C37.5072,17 38,17.448 38,18 L38,22 C38,22.552 37.5072,23 36.9,23 Z M29.2,21 L35.8,21 L35.8,19 L29.2,19 L29.2,21 Z" id="Shape" fill="#000000" fill-rule="nonzero"></path>
                <path d="M36.9001138,51 L28.0998606,51 C27.7940518,51 27.5014434,50.8757098 27.2935374,50.6571306 C27.0856314,50.4374799 26.9800284,50.143898 27.0031291,49.8471017 L29.2031923,21.9889639 C29.2471936,21.4307297 29.7257074,21 30.2999239,21 L34.7000505,21 C35.274267,21 35.7527808,21.4307297 35.796782,21.9889639 L37.9968453,49.8471017 C38.019946,50.1449695 37.915443,50.4385514 37.707537,50.6571306 C37.498531,50.8757098 37.2070226,51 36.9001138,51 Z M29.2878948,48.8570663 L35.7120796,48.8570663 L33.6814212,23.1418622 L31.3185532,23.1418622 L29.2878948,48.8570663 Z" id="Shape" fill="#000000" fill-rule="nonzero"></path>
            </g>
        </g>
    </g>
</svg>