<?xml version="1.0" encoding="UTF-8"?>
<svg width="64px" height="64px" viewBox="0 0 64 64" version="1.1" xmlns="http://www.w3.org/2000/svg" xmlns:xlink="http://www.w3.org/1999/xlink">
    <title>026-marker</title>
    <defs>
        <filter id="filter-1">
            <feColorMatrix in="SourceGraphic" type="matrix" values="0 0 0 0 1.000000 0 0 0 0 1.000000 0 0 0 0 1.000000 0 0 0 1.000000 0"></feColorMatrix>
        </filter>
    </defs>
    <g id="Escritorio" stroke="none" stroke-width="1" fill="none" fill-rule="evenodd">
        <g id="026-marker" transform="translate(-256.000000, -1599.000000)" filter="url(#filter-1)">
            <g transform="translate(256.000000, 1599.000000)">
                <path d="M52.9884938,60 C52.7189116,60 52.4493295,59.8967926 52.2439836,59.6914309 C48.7120358,56.1592095 46.6964878,54.8122474 44.7978288,56.7121064 C44.3860842,57.123883 43.7195001,57.123883 43.3088085,56.7121064 C42.8970638,56.3003299 42.8970638,55.6347473 43.3088085,55.2229708 L55.2230774,43.3088324 C55.633769,42.8970559 56.3003531,42.8970559 56.7120977,43.3088324 C57.1238424,43.720609 57.1238424,44.3861915 56.7120977,44.7979681 C54.8134388,46.6978271 56.1592437,48.7124781 59.6911915,52.2446995 C60.1029362,52.656476 60.1029362,53.3220586 59.6911915,53.7338351 L53.7340571,59.6914309 C53.5276582,59.8978457 53.258076,60 52.9884938,60 L52.9884938,60 Z M47.6568743,53.8528396 C49.6071329,54.3267512 51.4636696,55.9685917 52.9863877,57.4598337 L57.4597671,52.9861079 C55.9686406,51.4632718 54.3269272,49.6065914 53.8530523,47.6561818 L47.6568743,53.8528396 Z" id="Shape" fill="#000000" fill-rule="nonzero"></path>
                <path d="M58.5459045,63 C58.2787542,63 58.0167218,62.8889835 57.8222446,62.6810996 L54.3001602,58.9370131 C53.8999466,58.5114498 53.8999466,57.8235828 54.3001602,57.3980194 L57.1947997,54.3189437 C57.5898955,53.8988223 58.227576,53.8933803 58.6298368,54.3047945 L63.6872674,59.4953609 C63.9431585,59.758753 64.0526799,60.1440457 63.9759125,60.5130123 C63.8991452,60.881979 63.6473484,61.183465 63.3116194,61.3064539 L58.8816335,62.9390498 C58.7710886,62.9793205 58.657473,63 58.5459045,63 L58.5459045,63 Z M56.4711399,58.1664279 L58.8161254,60.6599459 L61.0659195,59.8305873 L57.931766,56.613285 L56.4711399,58.1664279 Z" id="Shape" fill="#000000" fill-rule="nonzero"></path>
                <path d="M35.9228491,32 C35.6471674,32 35.3714857,31.8944636 35.1614938,31.6844676 L23.3157955,19.8385416 C22.8947348,19.4174727 22.8947348,18.7368704 23.3157955,18.3158016 C23.7357794,17.8947328 24.4185224,17.8947328 24.8385062,18.3158016 L36.6842045,30.1617277 C37.1052652,30.5827965 37.1052652,31.2633988 36.6842045,31.6844676 C36.4742125,31.8944636 36.1985308,32 35.9228491,32 Z" id="Path" fill="#000000" fill-rule="nonzero"></path>
                <path d="M43.8331389,40 C43.5344971,40 43.2358553,39.8856714 43.0083743,39.6581809 L38.3420965,34.9917087 C37.8859678,34.535561 37.8859678,33.7982584 38.3420965,33.3421107 C38.7970586,32.8859631 39.5366636,32.8859631 39.9916257,33.3421107 L44.6579035,38.008583 C45.1140322,38.4647306 45.1140322,39.2020332 44.6579035,39.6581809 C44.4304225,39.8856714 44.1317807,40 43.8331389,40 Z" id="Path" fill="#000000" fill-rule="nonzero"></path>
                <path d="M43.9167307,57 C43.6447216,57 43.3727124,56.8958229 43.1655179,56.6885319 L0.822402729,14.3256745 C0.292197352,13.795222 0,13.0893692 0,12.3388692 C0,11.5883691 0.292197352,10.8825164 0.822402729,10.3520638 L10.3735373,0.796476145 C11.433948,-0.265492048 13.2848854,-0.265492048 14.3463587,0.796476145 L56.6884114,43.1582704 C57.1038629,43.5739156 57.1038629,44.2457514 56.6884114,44.6613966 L44.6679436,56.6885319 C44.4607491,56.8958229 44.1876774,57 43.9167307,57 Z M12.3604793,2.09975243 C12.1777231,2.09975243 12.0066548,2.17097552 11.8770255,2.2996023 L2.32482839,11.85519 C2.19626155,11.9848798 2.12507165,12.1560278 2.12507165,12.3388692 C2.12507165,12.5217105 2.19626155,12.6928586 2.32482839,12.8225484 L43.9156682,54.4327796 L54.4337103,43.9098335 L12.8439331,2.2996023 C12.7143037,2.16991249 12.5432354,2.09975243 12.3604793,2.09975243 Z" id="Shape" fill="#000000" fill-rule="nonzero"></path>
                <path d="M23.9130435,64 L1.08695652,64 C0.486956522,64 0,63.552 0,63 C0,62.448 0.486956522,62 1.08695652,62 L23.9130435,62 C24.5130435,62 25,62.448 25,63 C25,63.552 24.5130435,64 23.9130435,64 Z" id="Path" fill="#000000" fill-rule="nonzero"></path>
                <path d="M32.8333333,64 L28.1666667,64 C27.5226667,64 27,63.552 27,63 C27,62.448 27.5226667,62 28.1666667,62 L32.8333333,62 C33.4773333,62 34,62.448 34,63 C34,63.552 33.4773333,64 32.8333333,64 Z" id="Path" fill="#000000" fill-rule="nonzero"></path>
                <path d="M50.9375,64 L36.0625,64 C35.476,64 35,63.552 35,63 C35,62.448 35.476,62 36.0625,62 L50.9375,62 C51.524,62 52,62.448 52,63 C52,63.552 51.524,64 50.9375,64 Z" id="Path" fill="#000000" fill-rule="nonzero"></path>
                <path d="M7.03791675,20 C6.76842711,20 6.49893747,19.8968319 6.29366216,19.6915485 L0.812284984,14.2110078 C-0.270937046,13.1256375 -0.270937046,11.3602002 0.813337678,10.2769354 L10.2770559,0.813896522 C11.3613306,-0.270420986 13.1256456,-0.271473721 14.210973,0.811791051 L19.6912975,6.29338451 C20.1029008,6.70500407 20.1029008,7.37033287 19.6912975,7.78195243 L7.78217134,19.6915485 C7.57584334,19.8968319 7.3063537,20 7.03791675,20 Z M12.2445408,2.10349744 C12.0708463,2.10349744 11.8971518,2.16876704 11.7655651,2.30141171 L2.30289956,11.7644506 C2.03972608,12.0276345 2.03972608,12.4582033 2.30289956,12.7224399 L7.03791675,17.4586966 L17.4585337,7.03766847 L12.7224638,2.30141171 C12.5908771,2.16981977 12.4182353,2.10349744 12.2445408,2.10349744 Z" id="Shape" fill="#000000" fill-rule="nonzero"></path>
            </g>
        </g>
    </g>
</svg>