<?xml version="1.0" encoding="UTF-8"?>
<svg width="64px" height="61px" viewBox="0 0 64 61" version="1.1" xmlns="http://www.w3.org/2000/svg" xmlns:xlink="http://www.w3.org/1999/xlink">
    <title>012-online course</title>
    <defs>
        <filter id="filter-1">
            <feColorMatrix in="SourceGraphic" type="matrix" values="0 0 0 0 1.000000 0 0 0 0 1.000000 0 0 0 0 1.000000 0 0 0 1.000000 0"></feColorMatrix>
        </filter>
    </defs>
    <g id="Escritorio" stroke="none" stroke-width="1" fill="none" fill-rule="evenodd">
        <g id="012-online-course" transform="translate(-682.000000, -1601.000000)" filter="url(#filter-1)">
            <g transform="translate(682.000000, 1601.000000)">
                <path d="M32,27 C31.8458889,27 31.6928333,26.9662227 31.5503333,26.8997236 L13.6058889,18.4553965 C13.2364444,18.2812322 13,17.9086263 13,17.5001319 C13,17.0916376 13.2364444,16.7190317 13.6058889,16.5448674 L31.5503333,8.10054027 C31.8353333,7.96648658 32.1646667,7.96648658 32.4496667,8.10054027 L50.3941111,16.5448674 C50.7635556,16.7190317 51,17.0916376 51,17.5001319 C51,17.9086263 50.7635556,18.2812322 50.3941111,18.4553965 L32.4496667,26.8997236 C32.3071667,26.9662227 32.1541111,27 32,27 Z M16.5350556,17.5001319 L32,24.7780864 L47.4649444,17.5001319 L32,10.2221775 L16.5350556,17.5001319 Z" id="Shape" fill="#000000" fill-rule="nonzero"></path>
                <path d="M32,36 C31.8352308,36 31.6693846,35.96421 31.5186154,35.8926301 L18.5955385,29.7572047 C18.2304615,29.5833676 18,29.2295581 18,28.8420037 L18,21.022404 C18,20.6726848 18.1884615,20.3464847 18.4996923,20.1593542 C18.8109231,19.9712011 19.2018462,19.9497271 19.5346154,20.0969774 L32,25.666921 L44.4643077,20.0969774 C44.7981538,19.9487046 45.1890769,19.9712011 45.4992308,20.1593542 C45.8115385,20.3464847 46,20.6726848 46,21.022404 L46,28.8420037 C46,29.2295581 45.7695385,29.5833676 45.4044615,29.7572047 L32.4813846,35.8926301 C32.3306154,35.96421 32.1647692,36 32,36 L32,36 Z M20.1538462,28.2100549 L32,33.8341948 L43.8461538,28.2100549 L43.8461538,22.6339758 L32.4587692,27.7222886 C32.168,27.8521551 31.832,27.8521551 31.5412308,27.7222886 L20.1538462,22.6339758 L20.1538462,28.2100549 Z" id="Shape" fill="#000000" fill-rule="nonzero"></path>
                <path d="M49.9473684,19 L32.0526316,19 C31.4715789,19 31,18.552 31,18 C31,17.448 31.4715789,17 32.0526316,17 L49.9473684,17 C50.5284211,17 51,17.448 51,18 C51,18.552 50.5284211,19 49.9473684,19 Z" id="Path" fill="#000000" fill-rule="nonzero"></path>
                <path d="M50,29 C49.448,29 49,28.5112727 49,27.9090909 L49,18.0909091 C49,17.4887273 49.448,17 50,17 C50.552,17 51,17.4887273 51,18.0909091 L51,27.9090909 C51,28.5112727 50.552,29 50,29 Z" id="Path" fill="#000000" fill-rule="nonzero"></path>
                <path d="M32,21 C31.448,21 31,20.552 31,20 L31,16 C31,15.448 31.448,15 32,15 C32.552,15 33,15.448 33,16 L33,20 C33,20.552 32.552,21 32,21 Z" id="Path" fill="#000000" fill-rule="nonzero"></path>
                <path d="M47.9989361,31 C47.8089239,31 47.6159116,30.9460109 47.4449007,30.832034 C46.9858714,30.526096 46.8618634,29.9052218 47.167883,29.4453149 L49.1680107,26.4459224 C49.4740303,25.9860156 50.0940699,25.8610409 50.5550993,26.1689785 C51.0141286,26.4749166 51.1381366,27.0957908 50.832117,27.5556977 L48.8319893,30.5550901 C48.6389769,30.8440316 48.3219567,31 47.9989361,31 Z" id="Path" fill="#000000" fill-rule="nonzero"></path>
                <path d="M52.0010639,31 C51.6780433,31 51.3610231,30.8440316 51.1680107,30.5550901 L49.167883,27.5556977 C48.8618634,27.0967906 48.9858714,26.4749166 49.4449007,26.1689785 C49.90393,25.8610409 50.5249697,25.9860156 50.8319893,26.4459224 L52.832117,29.4453149 C53.1381366,29.904222 53.0141286,30.526096 52.5550993,30.832034 C52.3840884,30.9460109 52.1910761,31 52.0010639,31 Z" id="Path" fill="#000000" fill-rule="nonzero"></path>
                <path d="M32,30 C31.448,30 31,29.552 31,29 L31,26 C31,25.448 31.448,25 32,25 C32.552,25 33,25.448 33,26 L33,29 C33,29.552 32.552,30 32,30 Z" id="Path" fill="#000000" fill-rule="nonzero"></path>
                <path d="M62.9333333,40 L1.06666667,40 C0.477866667,40 0,39.5284211 0,38.9473684 L0,4.21157895 C0,1.88947368 1.91466667,0 4.26773333,0 L59.7322667,0 C62.0853333,0 64,1.88947368 64,4.21157895 L64,38.9473684 C64,39.5284211 63.5221333,40 62.9333333,40 L62.9333333,40 Z M2.13333333,37.8947368 L61.8666667,37.8947368 L61.8666667,4.21157895 C61.8666667,3.04947368 60.9098667,2.10526316 59.7322667,2.10526316 L4.26773333,2.10526316 C3.09013333,2.10526316 2.13333333,3.04947368 2.13333333,4.21157895 L2.13333333,37.8947368 Z" id="Shape" fill="#000000" fill-rule="nonzero"></path>
                <path d="M59.7322667,49 L4.26773333,49 C1.91466667,49 0,47.0255 0,44.5989 L0,39.1 C0,38.4928 0.477866667,38 1.06666667,38 L62.9333333,38 C63.5221333,38 64,38.4928 64,39.1 L64,44.5989 C64,47.0255 62.0853333,49 59.7322667,49 Z M2.13333333,40.2 L2.13333333,44.5989 C2.13333333,45.8133 3.09013333,46.8 4.26773333,46.8 L59.7322667,46.8 C60.9098667,46.8 61.8666667,45.8133 61.8666667,44.5989 L61.8666667,40.2 L2.13333333,40.2 Z" id="Shape" fill="#000000" fill-rule="nonzero"></path>
                <path d="M35.875,44 L29.125,44 C28.504,44 28,43.552 28,43 C28,42.448 28.504,42 29.125,42 L35.875,42 C36.496,42 37,42.448 37,43 C37,43.552 36.496,44 35.875,44 Z" id="Path" fill="#000000" fill-rule="nonzero"></path>
                <path d="M58.9423077,40 L6.05769231,40 C5.47384615,40 5,39.5256471 5,38.9411765 L5,5.05882353 C5,4.47435294 5.47384615,4 6.05769231,4 L58.9423077,4 C59.5261538,4 60,4.47435294 60,5.05882353 L60,38.9411765 C60,39.5256471 59.5261538,40 58.9423077,40 Z M7.11538462,37.8823529 L57.8846154,37.8823529 L57.8846154,6.11764706 L7.11538462,6.11764706 L7.11538462,37.8823529 Z" id="Shape" fill="#000000" fill-rule="nonzero"></path>
                <path d="M45.8125,61 L18.1875,61 C16.430125,61 15,59.654 15,58 C15,56.346 16.430125,55 18.1875,55 L45.8125,55 C47.569875,55 49,56.346 49,58 C49,59.654 47.569875,61 45.8125,61 Z M18.1875,57 C17.6020625,57 17.125,57.449 17.125,58 C17.125,58.551 17.6020625,59 18.1875,59 L45.8125,59 C46.3979375,59 46.875,58.551 46.875,58 C46.875,57.449 46.3979375,57 45.8125,57 L18.1875,57 Z" id="Shape" fill="#000000" fill-rule="nonzero"></path>
                <path d="M43.9166667,57 L20.0833333,57 C19.4853333,57 19,56.5072 19,55.9 C19,55.2928 19.4853333,54.8 20.0833333,54.8 C23.6778333,54.8 25.5,52.2095 25.5,47.1 C25.5,46.4928 25.9853333,46 26.5833333,46 L37.4166667,46 C38.0146667,46 38.5,46.4928 38.5,47.1 C38.5,52.2095 40.3221667,54.8 43.9166667,54.8 C44.5146667,54.8 45,55.2928 45,55.9 C45,56.5072 44.5146667,57 43.9166667,57 Z M25.36025,54.8 L38.6408333,54.8 C37.3061667,53.2996 36.52075,51.0655 36.3636667,48.2 L27.6374167,48.2 C27.47925,51.0655 26.6949167,53.2996 25.36025,54.8 Z" id="Shape" fill="#000000" fill-rule="nonzero"></path>
            </g>
        </g>
    </g>
</svg>