<?xml version="1.0" encoding="UTF-8"?>
<svg width="48px" height="48px" viewBox="0 0 48 48" version="1.1" xmlns="http://www.w3.org/2000/svg" xmlns:xlink="http://www.w3.org/1999/xlink">
    <title>009-elearning</title>
    <defs>
        <filter id="filter-1">
            <feColorMatrix in="SourceGraphic" type="matrix" values="0 0 0 0 1.000000 0 0 0 0 1.000000 0 0 0 0 1.000000 0 0 0 1.000000 0"></feColorMatrix>
        </filter>
    </defs>
    <g id="Escritorio" stroke="none" stroke-width="1" fill="none" fill-rule="evenodd">
        <g id="009-elearning" transform="translate(-132.000000, -3653.000000)" filter="url(#filter-1)">
            <g transform="translate(132.000000, 3653.000000)">
                <path d="M8,32 C3.5888,32 0,28.4112 0,24 C0,19.5888 3.5888,16 8,16 C12.4112,16 16,19.5888 16,24 C16,28.4112 12.4112,32 8,32 Z M8,17.6 C4.4712,17.6 1.6,20.4712 1.6,24 C1.6,27.5288 4.4712,30.4 8,30.4 C11.5288,30.4 14.4,27.5288 14.4,24 C14.4,20.4712 11.5288,17.6 8,17.6 Z" id="Shape" fill="#000000" fill-rule="nonzero"></path>
                <path d="M8,26 C6.3455,26 5,24.6545 5,23 C5,21.3455 6.3455,20 8,20 C9.6545,20 11,21.3455 11,23 C11,24.6545 9.6545,26 8,26 Z M8,21.5 C7.17275,21.5 6.5,22.17275 6.5,23 C6.5,23.82725 7.17275,24.5 8,24.5 C8.82725,24.5 9.5,23.82725 9.5,23 C9.5,22.17275 8.82725,21.5 8,21.5 Z" id="Shape" fill="#000000" fill-rule="nonzero"></path>
                <path d="M8.5,33 C7.00975,33 5.569,32.5141667 4.333,31.5941667 C4.12525,31.44 4,31.18 4,30.9016667 L4,30.5125 C4,29.1275 5.0425,28 6.32425,28 L10.67575,28 C11.9575,28 13,29.1275 13,30.5125 L13,30.9016667 C13,31.1791667 12.87475,31.44 12.667,31.5941667 C11.431,32.5141667 9.99025,33 8.5,33 Z M5.503,30.4416667 C7.32175,31.6108333 9.67825,31.6108333 11.497,30.4416667 C11.46175,30.0083333 11.107,29.6666667 10.67575,29.6666667 L6.32425,29.6666667 C5.893,29.6666667 5.53825,30.0083333 5.503,30.4416667 Z" id="Shape" fill="#000000" fill-rule="nonzero"></path>
                <path d="M40,32 C35.5888,32 32,28.4112 32,24 C32,19.5888 35.5888,16 40,16 C44.4112,16 48,19.5888 48,24 C48,28.4112 44.4112,32 40,32 Z M40,17.6 C36.4712,17.6 33.6,20.4712 33.6,24 C33.6,27.5288 36.4712,30.4 40,30.4 C43.5288,30.4 46.4,27.5288 46.4,24 C46.4,20.4712 43.5288,17.6 40,17.6 Z" id="Shape" fill="#000000" fill-rule="nonzero"></path>
                <path d="M40,26 C38.3455,26 37,24.6545 37,23 C37,21.3455 38.3455,20 40,20 C41.6545,20 43,21.3455 43,23 C43,24.6545 41.6545,26 40,26 Z M40,21.5 C39.17275,21.5 38.5,22.17275 38.5,23 C38.5,23.82725 39.17275,24.5 40,24.5 C40.82725,24.5 41.5,23.82725 41.5,23 C41.5,22.17275 40.82725,21.5 40,21.5 Z" id="Shape" fill="#000000" fill-rule="nonzero"></path>
                <path d="M39.5,33 C38.00975,33 36.569,32.5141667 35.333,31.5941667 C35.12525,31.44 35,31.18 35,30.9016667 L35,30.5125 C35,29.1275 36.0425,28 37.32425,28 L41.67575,28 C42.9575,28 44,29.1275 44,30.5125 L44,30.9016667 C44,31.1791667 43.87475,31.44 43.667,31.5941667 C42.431,32.5141667 40.99025,33 39.5,33 Z M36.503,30.4416667 C38.32175,31.6108333 40.67825,31.6108333 42.497,30.4416667 C42.46175,30.0083333 42.107,29.6666667 41.67575,29.6666667 L37.32425,29.6666667 C36.893,29.6666667 36.53825,30.0083333 36.503,30.4416667 Z" id="Shape" fill="#000000" fill-rule="nonzero"></path>
                <path d="M39.2142857,18 C38.7805714,18 38.4285714,17.6334545 38.4285714,17.1818182 L38.4285714,4.91236364 C38.4285714,3.10581818 37.0174286,1.63636364 35.2825714,1.63636364 L11.7174286,1.63636364 C9.98257143,1.63636364 8.57142857,3.10581818 8.57142857,4.91236364 L8.57142857,17.1818182 C8.57142857,17.6334545 8.21942857,18 7.78571429,18 C7.352,18 7,17.6334545 7,17.1818182 L7,4.91236364 C7,2.20336364 9.11592857,0 11.7174286,0 L35.2817857,0 C37.8840714,0 40,2.20336364 40,4.91236364 L40,17.1818182 C40,17.6334545 39.648,18 39.2142857,18 Z" id="Path" fill="#000000" fill-rule="nonzero"></path>
                <path d="M35.2825714,48 L11.7174286,48 C9.11592857,48 7,45.7966364 7,43.0876364 L7,30.8181818 C7,30.3665455 7.352,30 7.78571429,30 C8.21942857,30 8.57142857,30.3665455 8.57142857,30.8181818 L8.57142857,43.0876364 C8.57142857,44.8941818 9.98257143,46.3636364 11.7174286,46.3636364 L35.2817857,46.3636364 C37.0174286,46.3636364 38.4285714,44.8941818 38.4285714,43.0876364 L38.4285714,30.8181818 C38.4285714,30.3665455 38.7805714,30 39.2142857,30 C39.648,30 40,30.3665455 40,30.8181818 L40,43.0876364 C40,45.7966364 37.8840714,48 35.2825714,48 L35.2825714,48 Z" id="Path" fill="#000000" fill-rule="nonzero"></path>
                <path d="M20.5585,30 C20.2915,30 20.02375,29.9308652 19.78075,29.7910243 C19.29175,29.5105568 19,29.0054012 19,28.4397525 L19,20.559953 C19,19.9943044 19.29175,19.4899343 19.78075,19.2086813 C20.299,18.9117157 20.929,18.9329276 21.42475,19.2644605 L27.30925,23.2051459 C27.742,23.4950408 28,23.9789847 28,24.5006384 C28,25.0222921 27.742,25.5062359 27.30925,25.7953452 L21.42475,29.7360306 C21.1615,29.9120102 20.86,30 20.5585,30 L20.5585,30 Z M20.56075,20.572523 C20.52475,20.572523 20.49475,20.5905923 20.488,20.5976629 L20.5,28.4373957 C20.50075,28.4248257 20.52025,28.4295394 20.5465,28.4303251 C20.5675,28.4303251 20.593,28.4279682 20.617,28.4114701 L26.5015,24.4707847 L20.617,20.5898067 C20.5975,20.5772367 20.578,20.572523 20.56075,20.572523 L20.56075,20.572523 Z" id="Shape" fill="#000000" fill-rule="nonzero"></path>
            </g>
        </g>
    </g>
</svg>