<?xml version="1.0" encoding="UTF-8"?>
<svg width="46px" height="47px" viewBox="0 0 46 47" version="1.1" xmlns="http://www.w3.org/2000/svg" xmlns:xlink="http://www.w3.org/1999/xlink">
    <title>010-thesis</title>
    <defs>
        <filter id="filter-1">
            <feColorMatrix in="SourceGraphic" type="matrix" values="0 0 0 0 1.000000 0 0 0 0 1.000000 0 0 0 0 1.000000 0 0 0 1.000000 0"></feColorMatrix>
        </filter>
    </defs>
    <g id="Escritorio" stroke="none" stroke-width="1" fill="none" fill-rule="evenodd">
        <g id="010-thesis" transform="translate(-133.000000, -3476.000000)" filter="url(#filter-1)">
            <g transform="translate(133.000000, 3476.000000)">
                <path d="M35.2173913,38 L18.7826087,38 C18.3506087,38 18,37.552 18,37 C18,36.448 18.3506087,36 18.7826087,36 L35.2173913,36 C35.6493913,36 36,36.448 36,37 C36,37.552 35.6493913,38 35.2173913,38 Z" id="Path" fill="#000000" fill-rule="nonzero"></path>
                <path d="M38.3333333,38 L37.6666667,38 C37.2986667,38 37,37.552 37,37 C37,36.448 37.2986667,36 37.6666667,36 L38.3333333,36 C38.7013333,36 39,36.448 39,37 C39,37.552 38.7013333,38 38.3333333,38 Z" id="Path" fill="#000000" fill-rule="nonzero"></path>
                <path d="M39.2173913,42 L22.7826087,42 C22.3506087,42 22,41.552 22,41 C22,40.448 22.3506087,40 22.7826087,40 L39.2173913,40 C39.6493913,40 40,40.448 40,41 C40,41.552 39.6493913,42 39.2173913,42 Z" id="Path" fill="#000000" fill-rule="nonzero"></path>
                <path d="M19.3333333,42 L18.6666667,42 C18.2986667,42 18,41.552 18,41 C18,40.448 18.2986667,40 18.6666667,40 L19.3333333,40 C19.7013333,40 20,40.448 20,41 C20,41.552 19.7013333,42 19.3333333,42 Z" id="Path" fill="#000000" fill-rule="nonzero"></path>
                <path d="M39.2173913,35 L22.7826087,35 C22.3506087,35 22,34.552 22,34 C22,33.448 22.3506087,33 22.7826087,33 L39.2173913,33 C39.6493913,33 40,33.448 40,34 C40,34.552 39.6493913,35 39.2173913,35 Z" id="Path" fill="#000000" fill-rule="nonzero"></path>
                <path d="M19.3333333,35 L18.6666667,35 C18.2986667,35 18,34.552 18,34 C18,33.448 18.2986667,33 18.6666667,33 L19.3333333,33 C19.7013333,33 20,33.448 20,34 C20,34.552 19.7013333,35 19.3333333,35 Z" id="Path" fill="#000000" fill-rule="nonzero"></path>
                <path d="M12.25,16 L7.75,16 C7.336,16 7,15.6416 7,15.2 L7,8.8 C7,8.3584 7.336,8 7.75,8 L12.25,8 C12.664,8 13,8.3584 13,8.8 L13,15.2 C13,15.6416 12.664,16 12.25,16 Z M8.5,14.4 L11.5,14.4 L11.5,9.6 L8.5,9.6 L8.5,14.4 Z" id="Shape" fill="#000000" fill-rule="nonzero"></path>
                <path d="M3.27272727,16 C1.46781818,16 0,14.2056 0,12 C0,9.7944 1.46781818,8 3.27272727,8 C4.15963636,8 4.74627273,8.8136 5.21836364,9.4664 C5.25109091,9.512 5.283,9.5568 5.31490909,9.6 L8.18181818,9.6 C8.63345455,9.6 9,9.9584 9,10.4 L9,13.6 C9,14.0416 8.63345455,14.4 8.18181818,14.4 L5.31490909,14.4 C5.283,14.4432 5.25109091,14.488 5.21836364,14.5336 C4.74627273,15.1864 4.15963636,16 3.27272727,16 Z M3.21627273,9.6016 C2.35390909,9.6472 1.63636364,10.7272 1.63636364,12 C1.63636364,13.2728 2.35390909,14.3528 3.21627273,14.3984 C3.39381818,14.2872 3.72027273,13.8344 3.88145455,13.6112 C4.02545455,13.4112 4.16209091,13.2248 4.28645455,13.0824 C4.44109091,12.9032 4.66936364,12.8 4.90909091,12.8 L7.36363636,12.8 L7.36363636,11.2 L4.90909091,11.2 C4.66936364,11.2 4.44109091,11.0968 4.28563636,10.9176 C4.16127273,10.7752 4.02463636,10.588 3.88063636,10.3888 C3.71945455,10.1656 3.393,9.7128 3.21627273,9.6016 L3.21627273,9.6016 Z" id="Shape" fill="#000000" fill-rule="nonzero"></path>
                <path d="M12.25,39 L7.75,39 C7.336,39 7,38.6416 7,38.2 L7,31.8 C7,31.3584 7.336,31 7.75,31 L12.25,31 C12.664,31 13,31.3584 13,31.8 L13,38.2 C13,38.6416 12.664,39 12.25,39 Z M8.5,37.4 L11.5,37.4 L11.5,32.6 L8.5,32.6 L8.5,37.4 Z" id="Shape" fill="#000000" fill-rule="nonzero"></path>
                <path d="M3.27272727,39 C1.46781818,39 0,37.2056 0,35 C0,32.7944 1.46781818,31 3.27272727,31 C4.15963636,31 4.74627273,31.8136 5.21836364,32.4664 C5.25109091,32.512 5.283,32.5568 5.31490909,32.6 L8.18181818,32.6 C8.63345455,32.6 9,32.9584 9,33.4 L9,36.6 C9,37.0416 8.63345455,37.4 8.18181818,37.4 L5.31490909,37.4 C5.283,37.4432 5.25109091,37.488 5.21836364,37.5336 C4.74627273,38.1864 4.15963636,39 3.27272727,39 Z M3.21627273,32.6016 C2.35390909,32.6472 1.63636364,33.7272 1.63636364,35 C1.63636364,36.2728 2.35390909,37.3528 3.21627273,37.3984 C3.39381818,37.2872 3.72027273,36.8344 3.88145455,36.6112 C4.02545455,36.4112 4.16209091,36.2248 4.28645455,36.0824 C4.44109091,35.9032 4.66936364,35.8 4.90909091,35.8 L7.36363636,35.8 L7.36363636,34.2 L4.90909091,34.2 C4.66936364,34.2 4.44109091,34.0968 4.28563636,33.9176 C4.16127273,33.7752 4.02463636,33.588 3.88063636,33.3888 C3.71945455,33.1656 3.393,32.7128 3.21627273,32.6016 L3.21627273,32.6016 Z" id="Shape" fill="#000000" fill-rule="nonzero"></path>
                <path d="M42.0869565,47 L13.9130435,47 C11.7553913,47 10,45.2132034 10,43.0169492 L10,38.2372881 C10,37.7975593 10.3506087,37.440678 10.7826087,37.440678 L12.3478261,37.440678 L12.3478261,32.6610169 L10.7826087,32.6610169 C10.3506087,32.6610169 10,32.3041356 10,31.8644068 L10,15.1355932 C10,14.6958644 10.3506087,14.3389831 10.7826087,14.3389831 L12.3478261,14.3389831 L12.3478261,9.55932203 L10.7826087,9.55932203 C10.3506087,9.55932203 10,9.20244068 10,8.76271186 L10,3.98305085 C10,1.78679661 11.7553913,0 13.9130435,0 L42.0869565,0 C44.2446087,0 46,1.78679661 46,3.98305085 L46,43.0169492 C46,45.2132034 44.2446087,47 42.0869565,47 Z M11.5652174,39.0338983 L11.5652174,43.0169492 C11.5652174,44.3345424 12.6186087,45.4067797 13.9130435,45.4067797 L42.0869565,45.4067797 C43.3813913,45.4067797 44.4347826,44.3345424 44.4347826,43.0169492 L44.4347826,3.98305085 C44.4347826,2.66545763 43.3813913,1.59322034 42.0869565,1.59322034 L13.9130435,1.59322034 C12.6186087,1.59322034 11.5652174,2.66545763 11.5652174,3.98305085 L11.5652174,7.96610169 L13.1304348,7.96610169 C13.5624348,7.96610169 13.9130435,8.32298305 13.9130435,8.76271186 L13.9130435,15.1355932 C13.9130435,15.575322 13.5624348,15.9322034 13.1304348,15.9322034 L11.5652174,15.9322034 L11.5652174,31.0677966 L13.1304348,31.0677966 C13.5624348,31.0677966 13.9130435,31.424678 13.9130435,31.8644068 L13.9130435,38.2372881 C13.9130435,38.6770169 13.5624348,39.0338983 13.1304348,39.0338983 L11.5652174,39.0338983 Z" id="Shape" fill="#000000" fill-rule="nonzero"></path>
                <path d="M30.3333885,22 L25.666777,22 C25.2374487,22 24.8890084,21.6373285 24.8890084,21.1904654 L24.8890084,20.3639305 C24.8890084,19.4904427 24.4612356,18.644479 23.7145778,18.0421853 C21.7328234,16.4433544 20.7403907,13.9354162 21.0584981,11.3311433 C21.4590489,8.06062348 24.0373518,5.41749297 27.1880923,5.04672611 C29.182291,4.81196108 31.1780452,5.46930318 32.6628054,6.85036923 C34.1475656,8.23224482 35,10.213176 35,12.2855846 C35,14.5838534 33.9383459,16.772835 32.1595891,18.141758 C31.5031524,18.6469076 31.1111571,19.5123001 31.1111571,20.457027 L31.1111571,21.1904654 C31.1111571,21.6373285 30.7627167,22 30.3333885,22 L30.3333885,22 Z M26.4445455,20.3809308 L29.5563977,20.3809308 C29.5773974,18.9545308 30.2019456,17.6349894 31.2348223,16.8392168 C32.6386946,15.7592977 33.4444628,14.0989422 33.4444628,12.2855846 C33.4444628,10.6738012 32.781804,9.13325685 31.6260399,8.05819488 C30.4539426,6.96856129 28.9396272,6.4706975 27.3630902,6.65608093 C24.9154525,6.94346571 22.9126984,8.9964455 22.6023687,11.5359556 C22.3534828,13.5646493 23.125807,15.5180563 24.6673443,16.762311 C25.7966643,17.673847 26.4445455,18.9861026 26.4445455,20.3639305 L26.4445455,20.3809308 Z" id="Shape" fill="#000000" fill-rule="nonzero"></path>
                <path d="M32.1666667,26 L23.8333333,26 C23.3733333,26 23,25.6266667 23,25.1666667 L23,21.8333333 C23,21.3733333 23.3733333,21 23.8333333,21 L32.1666667,21 C32.6266667,21 33,21.3733333 33,21.8333333 L33,25.1666667 C33,25.6266667 32.6266667,26 32.1666667,26 Z M24.6666667,24.3333333 L31.3333333,24.3333333 L31.3333333,22.6666667 L24.6666667,22.6666667 L24.6666667,24.3333333 Z" id="Shape" fill="#000000" fill-rule="nonzero"></path>
                <path d="M28,30 C26.3455,30 25,28.6545 25,27 L25,24.75 C25,24.336 25.336,24 25.75,24 L30.25,24 C30.664,24 31,24.336 31,24.75 L31,27 C31,28.6545 29.6545,30 28,30 Z M26.5,25.5 L26.5,27 C26.5,27.82725 27.17275,28.5 28,28.5 C28.82725,28.5 29.5,27.82725 29.5,27 L29.5,25.5 L26.5,25.5 Z" id="Shape" fill="#000000" fill-rule="nonzero"></path>
                <path d="M28,22 C27.448,22 27,21.6416 27,21.2 L27,14.8 C27,14.3584 27.448,14 28,14 C28.552,14 29,14.3584 29,14.8 L29,21.2 C29,21.6416 28.552,22 28,22 Z" id="Path" fill="#000000" fill-rule="nonzero"></path>
                <path d="M28.2,16 C27.7584,16 27.4,15.6416 27.4,15.2 C27.4,14.3176 26.6824,13.6 25.8,13.6 C25.3584,13.6 25,13.2416 25,12.8 C25,12.3584 25.3584,12 25.8,12 C27.5648,12 29,13.4352 29,15.2 C29,15.6416 28.6416,16 28.2,16 Z" id="Path" fill="#000000" fill-rule="nonzero"></path>
                <path d="M27.8,16 C27.3584,16 27,15.6416 27,15.2 C27,13.4352 28.4352,12 30.2,12 C30.6416,12 31,12.3584 31,12.8 C31,13.2416 30.6416,13.6 30.2,13.6 C29.3176,13.6 28.6,14.3176 28.6,15.2 C28.6,15.6416 28.2416,16 27.8,16 Z" id="Path" fill="#000000" fill-rule="nonzero"></path>
                <path d="M29.1666667,18 L25.8333333,18 C25.3733333,18 25,17.552 25,17 C25,16.448 25.3733333,16 25.8333333,16 L29.1666667,16 C29.6266667,16 30,16.448 30,17 C30,17.552 29.6266667,18 29.1666667,18 Z" id="Path" fill="#000000" fill-rule="nonzero"></path>
            </g>
        </g>
    </g>
</svg>