<?xml version="1.0" encoding="UTF-8"?>
<svg width="37px" height="47px" viewBox="0 0 37 47" version="1.1" xmlns="http://www.w3.org/2000/svg" xmlns:xlink="http://www.w3.org/1999/xlink">
    <title>013-thinking</title>
    <defs>
        <filter id="filter-1">
            <feColorMatrix in="SourceGraphic" type="matrix" values="0 0 0 0 1.000000 0 0 0 0 1.000000 0 0 0 0 1.000000 0 0 0 1.000000 0"></feColorMatrix>
        </filter>
    </defs>
    <g id="Escritorio" stroke="none" stroke-width="1" fill="none" fill-rule="evenodd">
        <g id="013-thinking" transform="translate(-777.000000, -3477.000000)" filter="url(#filter-1)">
            <g transform="translate(777.000000, 3477.000000)">
                <path d="M32.2142857,47 L11.7857143,47 C11.352,47 11,46.6487959 11,46.2143085 L11,41.5001596 C11,41.1340274 11.2522143,40.816608 11.6089286,40.7341104 L32.0375,36.0199615 C32.2700714,35.9665345 32.516,36.0215329 32.703,36.1708143 C32.8907857,36.3200957 33,36.5471605 33,36.7860107 L33,46.2143085 C33,46.6487959 32.648,47 32.2142857,47 Z M12.5714286,45.428617 L31.4285714,45.428617 L31.4285714,37.7736249 L12.5714286,42.12557 L12.5714286,45.428617 Z" id="Shape" fill="#000000" fill-rule="nonzero"></path>
                <path d="M13.3766809,41 C13.2027021,41 13.0318723,40.9438724 12.8925319,40.8369992 C12.7051702,40.6939891 12.5941702,40.4771673 12.590234,40.244968 C12.5485106,37.9898675 12.2407021,36.0407778 12.0312979,34.9512867 C9.26968085,36.1376557 7.04417021,36.315265 5.40593617,35.476426 C3.4827234,34.4922703 3.17019149,32.4970484 3.15838298,32.4132414 C3.15129787,32.3771044 3.14893617,32.3409674 3.14893617,32.3040616 L3.14893617,26.8635258 C0.680957447,26.4783211 0,24.2878058 0,23.0776018 C0,23.0214741 0.00629787234,22.9653465 0.018893617,22.9107566 L1.53510638,16.2477149 C0.0259787234,12.9554065 1.56344681,9.11796804 1.63114894,8.95189176 C6.4332766,-0.43526225 17.464,-0.0246847877 18.1315745,0.0122210516 C18.9227447,0.0206786398 37,0.401270108 37,13.8511419 C37,14.1110206 36.9716596,20.260456 34.5257234,24.2424423 C34.4651064,24.3331692 30.3541702,30.4449299 29.9542553,36.7196915 C29.933,37.0595328 29.6850213,37.3447842 29.3457234,37.4216713 L13.5530213,40.9807782 C13.494766,40.993849 13.4357234,41 13.3766809,41 L13.3766809,41 Z M12.5957447,33.0729333 C12.7083191,33.0729333 12.8201064,33.0959994 12.9248085,33.1436694 C13.1420851,33.2413161 13.3018936,33.4296897 13.3593617,33.6565068 C13.3869149,33.76338 13.975766,36.1045942 14.1308511,39.2723454 L28.4285957,36.0500043 C29.0473617,29.5768739 33.0213191,23.6765528 33.1952979,23.4220563 C35.395617,19.8383455 35.4255319,13.9103451 35.4255319,13.8511419 C35.4255319,1.69066787 18.2795745,1.54919549 18.106383,1.54919549 C18.0882766,1.54919549 18.069383,1.54842661 18.0512766,1.54765774 C17.622234,1.52074723 7.49131915,0.93717365 3.0662766,9.58236652 C3.06942553,9.58236652 1.67759574,13.1022609 3.0662766,15.8140713 C3.1473617,15.9724588 3.17019149,16.1523748 3.13082979,16.324602 L1.57761702,23.1521823 C1.59965957,23.6619442 1.83425532,25.3842167 3.93617021,25.3842167 C4.3707234,25.3842167 4.72340426,25.7286712 4.72340426,26.1530884 L4.72340426,32.2371698 C4.77142553,32.4686001 5.05168085,33.5696243 6.15223404,34.1232119 C7.47714894,34.7890548 9.583,34.4538267 12.2438511,33.1544337 C12.3540638,33.0998438 12.4752979,33.0729333 12.5957447,33.0729333 Z" id="Shape" fill="#000000" fill-rule="nonzero"></path>
                <path d="M19,27 C13.4861538,27 9,22.2895385 9,16.5 C9,10.7104615 13.4861538,6 19,6 C24.5138462,6 29,10.7104615 29,16.5 C29,22.2895385 24.5138462,27 19,27 Z M19,7.61538462 C14.3346154,7.61538462 10.5384615,11.6013462 10.5384615,16.5 C10.5384615,21.3986538 14.3346154,25.3846154 19,25.3846154 C23.6653846,25.3846154 27.4615385,21.3986538 27.4615385,16.5 C27.4615385,11.6013462 23.6653846,7.61538462 19,7.61538462 Z" id="Shape" fill="#000000" fill-rule="nonzero"></path>
                <path d="M19,17 C17.3455,17 16,15.6046667 16,13.8888889 L16,10.7777778 C16,10.3484444 16.336,10 16.75,10 L21.25,10 C21.664,10 22,10.3484444 22,10.7777778 L22,13.8888889 C22,15.6046667 20.6545,17 19,17 Z M17.5,11.5555556 L17.5,13.8888889 C17.5,14.7467778 18.17275,15.4444444 19,15.4444444 C19.82725,15.4444444 20.5,14.7467778 20.5,13.8888889 L20.5,11.5555556 L17.5,11.5555556 Z" id="Shape" fill="#000000" fill-rule="nonzero"></path>
                <path d="M23.1666667,12 L14.8333333,12 C14.3733333,12 14,11.552 14,11 C14,10.448 14.3733333,10 14.8333333,10 L23.1666667,10 C23.6266667,10 24,10.448 24,11 C24,11.552 23.6266667,12 23.1666667,12 Z" id="Path" fill="#000000" fill-rule="nonzero"></path>
                <path d="M21.25,23 L16.75,23 C16.336,23 16,22.6515556 16,22.2222222 L16,19.1111111 C16,17.3953333 17.3455,16 19,16 C20.6545,16 22,17.3953333 22,19.1111111 L22,22.2222222 C22,22.6515556 21.664,23 21.25,23 Z M17.5,21.4444444 L20.5,21.4444444 L20.5,19.1111111 C20.5,18.2532222 19.82725,17.5555556 19,17.5555556 C18.17275,17.5555556 17.5,18.2532222 17.5,19.1111111 L17.5,21.4444444 Z" id="Shape" fill="#000000" fill-rule="nonzero"></path>
                <path d="M23.1666667,23 L14.8333333,23 C14.3733333,23 14,22.552 14,22 C14,21.448 14.3733333,21 14.8333333,21 L23.1666667,21 C23.6266667,21 24,21.448 24,22 C24,22.552 23.6266667,23 23.1666667,23 Z" id="Path" fill="#000000" fill-rule="nonzero"></path>
            </g>
        </g>
    </g>
</svg>