<?xml version="1.0" encoding="UTF-8"?>
<svg width="42px" height="42px" viewBox="0 0 42 42" version="1.1" xmlns="http://www.w3.org/2000/svg" xmlns:xlink="http://www.w3.org/1999/xlink">
    <title>014-exam</title>
    <defs>
        <filter id="filter-1">
            <feColorMatrix in="SourceGraphic" type="matrix" values="0 0 0 0 1.000000 0 0 0 0 1.000000 0 0 0 0 1.000000 0 0 0 1.000000 0"></feColorMatrix>
        </filter>
    </defs>
    <g id="Escritorio" stroke="none" stroke-width="1" fill="none" fill-rule="evenodd">
        <g id="014-exam" transform="translate(-775.000000, -3300.000000)" filter="url(#filter-1)">
            <g transform="translate(775.000000, 3300.000000)">
                <path d="M33.2954545,42 L3.70454545,42 C3.31563636,42 3,41.6871 3,41.3 L3,6.3 C3,5.9136 3.31563636,5.6 3.70454545,5.6 L27.6605,5.6 C27.2173409,5.0148 26.9545455,4.2875 26.9545455,3.5 C26.9545455,1.5701 28.5348409,0 30.4772727,0 C32.4197045,0 34,1.5701 34,3.5 L34,41.3 C34,41.6871 33.6843636,42 33.2954545,42 Z M4.40909091,40.6 L32.5909091,40.6 L32.5909091,3.5 C32.5909091,2.3422 31.6425909,1.4 30.4772727,1.4 C29.3119545,1.4 28.3636364,2.3422 28.3636364,3.5 C28.3636364,4.6578 29.3119545,5.6 30.4772727,5.6 C30.8661818,5.6 31.1818182,5.9136 31.1818182,6.3 C31.1818182,6.6864 30.8661818,7 30.4772727,7 L4.40909091,7 L4.40909091,40.6 Z" id="Shape" fill="#000000" fill-rule="nonzero"></path>
                <path d="M30.2954545,8 L3.52272727,8 C1.58029545,8 0,6.2056 0,4 C0,1.7944 1.58029545,0 3.52272727,0 L30.2954545,0 C30.6843636,0 31,0.3584 31,0.8 C31,1.2416 30.6843636,1.6 30.2954545,1.6 C29.1301364,1.6 28.1818182,2.6768 28.1818182,4 C28.1818182,5.3232 29.1301364,6.4 30.2954545,6.4 C30.6843636,6.4 31,6.7584 31,7.2 C31,7.6416 30.6843636,8 30.2954545,8 Z M3.52272727,1.6 C2.35740909,1.6 1.40909091,2.6768 1.40909091,4 C1.40909091,5.3232 2.35740909,6.4 3.52272727,6.4 L27.4786818,6.4 C27.0355227,5.7312 26.7727273,4.9 26.7727273,4 C26.7727273,3.1 27.0355227,2.2688 27.4786818,1.6 L3.52272727,1.6 Z" id="Shape" fill="#000000" fill-rule="nonzero"></path>
                <path d="M41.25,36 L36.75,36 C36.336,36 36,35.6854468 36,35.2978723 L36,3.70212766 C36,3.31455319 36.336,3 36.75,3 L41.25,3 C41.664,3 42,3.31455319 42,3.70212766 L42,35.2978723 C42,35.6854468 41.664,36 41.25,36 Z M37.5,34.5957447 L40.5,34.5957447 L40.5,4.40425532 L37.5,4.40425532 L37.5,34.5957447 Z" id="Shape" fill="#000000" fill-rule="nonzero"></path>
                <path d="M40.3333333,5 L37.6666667,5 C37.2986667,5 37,4.68 37,4.28571429 L37,2.14285714 C37,0.961428571 37.8973333,0 39,0 C40.1026667,0 41,0.961428571 41,2.14285714 L41,4.28571429 C41,4.68 40.7013333,5 40.3333333,5 Z M38.3333333,3.57142857 L39.6666667,3.57142857 L39.6666667,2.14285714 C39.6666667,1.74928571 39.368,1.42857143 39,1.42857143 C38.632,1.42857143 38.3333333,1.74928571 38.3333333,2.14285714 L38.3333333,3.57142857 Z" id="Shape" fill="#000000" fill-rule="nonzero"></path>
                <path d="M40.3333333,39 L37.6666667,39 C37.2986667,39 37,38.7013333 37,38.3333333 L37,35.6666667 C37,35.2986667 37.2986667,35 37.6666667,35 L40.3333333,35 C40.7013333,35 41,35.2986667 41,35.6666667 L41,38.3333333 C41,38.7013333 40.7013333,39 40.3333333,39 Z M38.3333333,37.6666667 L39.6666667,37.6666667 L39.6666667,36.3333333 L38.3333333,36.3333333 L38.3333333,37.6666667 Z" id="Shape" fill="#000000" fill-rule="nonzero"></path>
                <path d="M40,42 C39.448,42 39,41.702 39,41.3333333 L39,38.6666667 C39,38.2986667 39.448,38 40,38 C40.552,38 41,38.2986667 41,38.6666667 L41,41.3333333 C41,41.702 40.552,42 40,42 Z" id="Path" fill="#000000" fill-rule="nonzero"></path>
                <path d="M41.25,14 L36.75,14 C36.336,14 36,13.664 36,13.25 L36,8.75 C36,8.336 36.336,8 36.75,8 L41.25,8 C41.664,8 42,8.336 42,8.75 L42,13.25 C42,13.664 41.664,14 41.25,14 Z M37.5,12.5 L40.5,12.5 L40.5,9.5 L37.5,9.5 L37.5,12.5 Z" id="Shape" fill="#000000" fill-rule="nonzero"></path>
                <path d="M41.25,33 L36.75,33 C36.336,33 36,32.664 36,32.25 L36,27.75 C36,27.336 36.336,27 36.75,27 L41.25,27 C41.664,27 42,27.336 42,27.75 L42,32.25 C42,32.664 41.664,33 41.25,33 Z M37.5,31.5 L40.5,31.5 L40.5,28.5 L37.5,28.5 L37.5,31.5 Z" id="Shape" fill="#000000" fill-rule="nonzero"></path>
                <path d="M24.3333333,24 L13.6666667,24 C13.2986667,24 13,23.6945455 13,23.3181818 L13,9.68181818 C13,9.30545455 13.2986667,9 13.6666667,9 L24.3333333,9 C24.7013333,9 25,9.30545455 25,9.68181818 L25,23.3181818 C25,23.6945455 24.7013333,24 24.3333333,24 Z M14.3333333,22.6363636 L23.6666667,22.6363636 L23.6666667,10.3636364 L14.3333333,10.3636364 L14.3333333,22.6363636 Z" id="Shape" fill="#000000" fill-rule="nonzero"></path>
                <path d="M16.3333333,13 L15.6666667,13 C15.2986667,13 15,12.552 15,12 C15,11.448 15.2986667,11 15.6666667,11 L16.3333333,11 C16.7013333,11 17,11.448 17,12 C17,12.552 16.7013333,13 16.3333333,13 Z" id="Path" fill="#000000" fill-rule="nonzero"></path>
                <path d="M21.4,13 L19.6,13 C19.2688,13 19,12.552 19,12 C19,11.448 19.2688,11 19.6,11 L21.4,11 C21.7312,11 22,11.448 22,12 C22,12.552 21.7312,13 21.4,13 Z" id="Path" fill="#000000" fill-rule="nonzero"></path>
                <path d="M16.3333333,20 L15.6666667,20 C15.2986667,20 15,19.552 15,19 C15,18.448 15.2986667,18 15.6666667,18 L16.3333333,18 C16.7013333,18 17,18.448 17,19 C17,19.552 16.7013333,20 16.3333333,20 Z" id="Path" fill="#000000" fill-rule="nonzero"></path>
                <path d="M21.4,20 L19.6,20 C19.2688,20 19,19.552 19,19 C19,18.448 19.2688,18 19.6,18 L21.4,18 C21.7312,18 22,18.448 22,19 C22,19.552 21.7312,20 21.4,20 Z" id="Path" fill="#000000" fill-rule="nonzero"></path>
                <path d="M21.3333333,16 L20.6666667,16 C20.2986667,16 20,15.552 20,15 C20,14.448 20.2986667,14 20.6666667,14 L21.3333333,14 C21.7013333,14 22,14.448 22,15 C22,15.552 21.7013333,16 21.3333333,16 Z" id="Path" fill="#000000" fill-rule="nonzero"></path>
                <path d="M17.4,16 L15.6,16 C15.2688,16 15,15.552 15,15 C15,14.448 15.2688,14 15.6,14 L17.4,14 C17.7312,14 18,14.448 18,15 C18,15.552 17.7312,16 17.4,16 Z" id="Path" fill="#000000" fill-rule="nonzero"></path>
                <path d="M21.3333333,22 L20.6666667,22 C20.2986667,22 20,21.552 20,21 C20,20.448 20.2986667,20 20.6666667,20 L21.3333333,20 C21.7013333,20 22,20.448 22,21 C22,21.552 21.7013333,22 21.3333333,22 Z" id="Path" fill="#000000" fill-rule="nonzero"></path>
                <path d="M17.4,22 L15.6,22 C15.2688,22 15,21.552 15,21 C15,20.448 15.2688,20 15.6,20 L17.4,20 C17.7312,20 18,20.448 18,21 C18,21.552 17.7312,22 17.4,22 Z" id="Path" fill="#000000" fill-rule="nonzero"></path>
                <path d="M9,39 C7.3455,39 6,37.6545 6,36 C6,34.3455 7.3455,33 9,33 C10.6545,33 12,34.3455 12,36 C12,37.6545 10.6545,39 9,39 Z M9,34.5 C8.17275,34.5 7.5,35.17275 7.5,36 C7.5,36.82725 8.17275,37.5 9,37.5 C9.82725,37.5 10.5,36.82725 10.5,36 C10.5,35.17275 9.82725,34.5 9,34.5 Z" id="Shape" fill="#000000" fill-rule="nonzero"></path>
                <path d="M18,39 C16.3455,39 15,37.6545 15,36 C15,34.3455 16.3455,33 18,33 C19.6545,33 21,34.3455 21,36 C21,37.6545 19.6545,39 18,39 Z M18,34.5 C17.17275,34.5 16.5,35.17275 16.5,36 C16.5,36.82725 17.17275,37.5 18,37.5 C18.82725,37.5 19.5,36.82725 19.5,36 C19.5,35.17275 18.82725,34.5 18,34.5 Z" id="Shape" fill="#000000" fill-rule="nonzero"></path>
                <path d="M27,39 C25.3455,39 24,37.6545 24,36 C24,34.3455 25.3455,33 27,33 C28.6545,33 30,34.3455 30,36 C30,37.6545 28.6545,39 27,39 Z M27,34.5 C26.17275,34.5 25.5,35.17275 25.5,36 C25.5,36.82725 26.17275,37.5 27,37.5 C27.82725,37.5 28.5,36.82725 28.5,36 C28.5,35.17275 27.82725,34.5 27,34.5 Z" id="Shape" fill="#000000" fill-rule="nonzero"></path>
                <path d="M19,34 C18.448,34 18,33.692 18,33.3125 L18,23.6875 C18,23.308 18.448,23 19,23 C19.552,23 20,23.308 20,23.6875 L20,33.3125 C20,33.692 19.552,34 19,34 Z" id="Path" fill="#000000" fill-rule="nonzero"></path>
                <path d="M8.73333333,35 C8.32853333,35 8,34.6515556 8,34.2222222 L8,31.1111111 C8,29.3953333 9.3156,28 10.9333333,28 L18.2666667,28 C18.6714667,28 19,28.3484444 19,28.7777778 C19,29.2071111 18.6714667,29.5555556 18.2666667,29.5555556 L10.9333333,29.5555556 C10.1244667,29.5555556 9.46666667,30.2532222 9.46666667,31.1111111 L9.46666667,34.2222222 C9.46666667,34.6515556 9.13813333,35 8.73333333,35 Z" id="Path" fill="#000000" fill-rule="nonzero"></path>
                <path d="M28.2666667,35 C27.8618667,35 27.5333333,34.6515556 27.5333333,34.2222222 L27.5333333,31.1111111 C27.5333333,30.2532222 26.8755333,29.5555556 26.0666667,29.5555556 L18.7333333,29.5555556 C18.3285333,29.5555556 18,29.2071111 18,28.7777778 C18,28.3484444 18.3285333,28 18.7333333,28 L26.0666667,28 C27.6844,28 29,29.3953333 29,31.1111111 L29,34.2222222 C29,34.6515556 28.6714667,35 28.2666667,35 Z" id="Path" fill="#000000" fill-rule="nonzero"></path>
            </g>
        </g>
    </g>
</svg>