<?xml version="1.0" encoding="UTF-8"?>
<svg width="43px" height="43px" viewBox="0 0 43 43" version="1.1" xmlns="http://www.w3.org/2000/svg" xmlns:xlink="http://www.w3.org/1999/xlink">
    <title>020-mathematics</title>
    <defs>
        <filter id="filter-1">
            <feColorMatrix in="SourceGraphic" type="matrix" values="0 0 0 0 1.000000 0 0 0 0 1.000000 0 0 0 0 1.000000 0 0 0 1.000000 0"></feColorMatrix>
        </filter>
    </defs>
    <g id="Escritorio" stroke="none" stroke-width="1" fill="none" fill-rule="evenodd">
        <g id="020-mathematics" transform="translate(-775.000000, -3121.000000)" filter="url(#filter-1)">
            <g transform="translate(775.000000, 3121.000000)">
                <path d="M12.2727273,16 L5.72727273,16 C5.32581818,16 5,15.776 5,15.5 C5,15.224 5.32581818,15 5.72727273,15 L12.2727273,15 C12.6741818,15 13,15.224 13,15.5 C13,15.776 12.6741818,16 12.2727273,16 Z" id="Path" fill="#000000" fill-rule="nonzero"></path>
                <path d="M8.2,18 L5.8,18 C5.3584,18 5,17.776 5,17.5 C5,17.224 5.3584,17 5.8,17 L8.2,17 C8.6416,17 9,17.224 9,17.5 C9,17.776 8.6416,18 8.2,18 Z" id="Path" fill="#000000" fill-rule="nonzero"></path>
                <path d="M12.25,18 L10.75,18 C10.336,18 10,17.776 10,17.5 C10,17.224 10.336,17 10.75,17 L12.25,17 C12.664,17 13,17.224 13,17.5 C13,17.776 12.664,18 12.25,18 Z" id="Path" fill="#000000" fill-rule="nonzero"></path>
                <path d="M12.2857143,13 L8.71428571,13 C8.32,13 8,12.776 8,12.5 C8,12.224 8.32,12 8.71428571,12 L12.2857143,12 C12.68,12 13,12.224 13,12.5 C13,12.776 12.68,13 12.2857143,13 Z" id="Path" fill="#000000" fill-rule="nonzero"></path>
                <path d="M36.3,26 L30.7,26 C30.3136,26 30,25.776 30,25.5 C30,25.224 30.3136,25 30.7,25 L36.3,25 C36.6864,25 37,25.224 37,25.5 C37,25.776 36.6864,26 36.3,26 Z" id="Path" fill="#000000" fill-rule="nonzero"></path>
                <path d="M33.3333333,28 L30.6666667,28 C30.2986667,28 30,27.776 30,27.5 C30,27.224 30.2986667,27 30.6666667,27 L33.3333333,27 C33.7013333,27 34,27.224 34,27.5 C34,27.776 33.7013333,28 33.3333333,28 Z" id="Path" fill="#000000" fill-rule="nonzero"></path>
                <path d="M36.3,19 L30.7,19 C30.3136,19 30,18.776 30,18.5 C30,18.224 30.3136,18 30.7,18 L36.3,18 C36.6864,18 37,18.224 37,18.5 C37,18.776 36.6864,19 36.3,19 Z" id="Path" fill="#000000" fill-rule="nonzero"></path>
                <path d="M33.3333333,22 L30.6666667,22 C30.2986667,22 30,21.776 30,21.5 C30,21.224 30.2986667,21 30.6666667,21 L33.3333333,21 C33.7013333,21 34,21.224 34,21.5 C34,21.776 33.7013333,22 33.3333333,22 Z" id="Path" fill="#000000" fill-rule="nonzero"></path>
                <path d="M36.3,13 L30.7,13 C30.3136,13 30,12.776 30,12.5 C30,12.224 30.3136,12 30.7,12 L36.3,12 C36.6864,12 37,12.224 37,12.5 C37,12.776 36.6864,13 36.3,13 Z" id="Path" fill="#000000" fill-rule="nonzero"></path>
                <path d="M33.3333333,16 L30.6666667,16 C30.2986667,16 30,15.776 30,15.5 C30,15.224 30.2986667,15 30.6666667,15 L33.3333333,15 C33.7013333,15 34,15.224 34,15.5 C34,15.776 33.7013333,16 33.3333333,16 Z" id="Path" fill="#000000" fill-rule="nonzero"></path>
                <path d="M12.7144473,29 C12.5315945,29 12.3487417,28.9264515 12.2094593,28.7802011 C11.9301802,28.4869503 11.9301802,28.0129489 12.2094593,27.719698 L15.7808031,23.9696871 C16.0600822,23.6764363 16.5115001,23.6764363 16.7907792,23.9696871 L19.8299928,27.1601964 L25.7548522,20.2481763 C26.0184174,19.9406754 26.4698352,19.9151753 26.7633997,20.1926761 C27.0569641,20.4694269 27.080535,20.9434283 26.8162556,21.2516792 L20.3878367,28.751701 C20.2571255,28.9047015 20.0714156,28.9947017 19.875706,29 C19.6785678,29.0022018 19.4900008,28.9257015 19.352147,28.7809511 L16.2857912,25.5604417 L13.2194353,28.7802011 C13.0801529,28.9264515 12.8973001,29 12.7144473,29 Z" id="Path" fill="#000000" fill-rule="nonzero"></path>
                <path d="M13.2496278,28.9999001 C13.0853726,28.9999001 12.9196172,28.9518933 12.7816128,28.8538794 L9.49950719,26.5202154 L6.21815162,28.8538794 C5.89489122,29.083912 5.42237601,29.0372387 5.16436771,28.7498646 C4.90560939,28.4624906 4.95811108,28.0424311 5.28137148,27.8130652 L9.03149213,25.1460207 C9.30525094,24.9513264 9.69451347,24.9513264 9.96827227,25.1460207 L13.7183929,27.8130652 C14.0424034,28.0430978 14.094155,28.4624906 13.8353967,28.7498646 C13.6868919,28.9145546 13.4686349,28.9999001 13.2496278,28.9999001 Z" id="Path" fill="#000000" fill-rule="nonzero"></path>
                <path d="M26.2857143,21 L22.7142857,21 C22.32,21 22,20.776 22,20.5 C22,20.224 22.32,20 22.7142857,20 L26.2857143,20 C26.68,20 27,20.224 27,20.5 C27,20.776 26.68,21 26.2857143,21 Z" id="Path" fill="#000000" fill-rule="nonzero"></path>
                <path d="M26.5,25 C26.224,25 26,24.68 26,24.2857143 L26,20.7142857 C26,20.32 26.224,20 26.5,20 C26.776,20 27,20.32 27,20.7142857 L27,24.2857143 C27,24.68 26.776,25 26.5,25 Z" id="Path" fill="#000000" fill-rule="nonzero"></path>
                <path d="M18.5,20 C16.01825,20 14,17.98175 14,15.5 C14,13.01825 16.01825,11 18.5,11 C20.98175,11 23,13.01825 23,15.5 C23,17.98175 20.98175,20 18.5,20 Z M18.5,12.5 C16.8455,12.5 15.5,13.8455 15.5,15.5 C15.5,17.1545 16.8455,18.5 18.5,18.5 C20.1545,18.5 21.5,17.1545 21.5,15.5 C21.5,13.8455 20.1545,12.5 18.5,12.5 Z" id="Shape" fill="#000000" fill-rule="nonzero"></path>
                <path d="M21.5,37 C21.224,37 21,36.68 21,36.2857143 L21,32.7142857 C21,32.32 21.224,32 21.5,32 C21.776,32 22,32.32 22,32.7142857 L22,36.2857143 C22,36.68 21.776,37 21.5,37 Z" id="Path" fill="#000000" fill-rule="nonzero"></path>
                <path d="M21.5,43 C19.5701,43 18,41.4299 18,39.5 C18,37.5701 19.5701,36 21.5,36 C23.4299,36 25,37.5701 25,39.5 C25,41.4299 23.4299,43 21.5,43 Z M21.5,37.4 C20.3422,37.4 19.4,38.3422 19.4,39.5 C19.4,40.6578 20.3422,41.6 21.5,41.6 C22.6578,41.6 23.6,40.6578 23.6,39.5 C23.6,38.3422 22.6578,37.4 21.5,37.4 Z" id="Shape" fill="#000000" fill-rule="nonzero"></path>
                <path d="M42.2833333,34 L0.716666667,34 C0.321066667,34 0,33.678359 0,33.2820513 L0,6.71794872 C0,6.32164103 0.321066667,6 0.716666667,6 L42.2833333,6 C42.6789333,6 43,6.32164103 43,6.71794872 L43,33.2820513 C43,33.678359 42.6789333,34 42.2833333,34 Z M1.43333333,32.5641026 L41.5666667,32.5641026 L41.5666667,7.43589744 L1.43333333,7.43589744 L1.43333333,32.5641026 Z" id="Shape" fill="#000000" fill-rule="nonzero"></path>
                <path d="M34.2777778,7 L9.72222222,7 C9.32355556,7 9,6.70133333 9,6.33333333 L9,5.1 C9,3.942 10.0205,3 11.275,3 L32.725,3 C33.9795,3 35,3.942 35,5.1 L35,6.33333333 C35,6.70133333 34.6764444,7 34.2777778,7 Z M10.4444444,5.66666667 L33.5555556,5.66666667 L33.5555556,5.1 C33.5555556,4.67733333 33.1828889,4.33333333 32.725,4.33333333 L11.275,4.33333333 C10.8171111,4.33333333 10.4444444,4.67733333 10.4444444,5.1 L10.4444444,5.66666667 Z" id="Shape" fill="#000000" fill-rule="nonzero"></path>
                <path d="M21.5,4 C21.224,4 21,3.70133333 21,3.33333333 L21,0.666666667 C21,0.298666667 21.224,0 21.5,0 C21.776,0 22,0.298666667 22,0.666666667 L22,3.33333333 C22,3.70133333 21.776,4 21.5,4 Z" id="Path" fill="#000000" fill-rule="nonzero"></path>
                <path d="M21.667502,5 C21.464861,5 21.2648863,4.88961136 21.1335696,4.68003293 C20.9122643,4.32646932 20.9722567,3.82492095 21.266886,3.5601482 L23.9332152,1.16039519 C24.2285112,0.89402261 24.6457917,0.967615035 24.8664304,1.32037873 C25.0877357,1.67394234 25.0277433,2.17549071 24.733114,2.44026346 L22.0667848,4.84001647 C21.9468,4.94800535 21.8061511,5 21.667502,5 Z" id="Path" fill="#000000" fill-rule="nonzero"></path>
                <path d="M21.3326887,5 C21.1940197,5 21.0533507,4.94799783 20.9333488,4.83999331 L18.266638,2.43989293 C17.9719665,2.17508186 17.9126322,1.67346088 18.1333025,1.31984609 C18.3539728,0.967831372 18.771313,0.894228294 19.0666512,1.1598394 L21.733362,3.55993978 C22.0280335,3.82475085 22.0873678,4.32637183 21.8666975,4.67998662 C21.7360287,4.88959538 21.5353587,5 21.3326887,5 Z" id="Path" fill="#000000" fill-rule="nonzero"></path>
            </g>
        </g>
    </g>
</svg>