<?xml version="1.0" encoding="UTF-8"?>
<svg width="44px" height="43px" viewBox="0 0 44 43" version="1.1" xmlns="http://www.w3.org/2000/svg" xmlns:xlink="http://www.w3.org/1999/xlink">
    <title>021-economics</title>
    <defs>
        <filter id="filter-1">
            <feColorMatrix in="SourceGraphic" type="matrix" values="0 0 0 0 1.000000 0 0 0 0 1.000000 0 0 0 0 1.000000 0 0 0 1.000000 0"></feColorMatrix>
        </filter>
    </defs>
    <g id="Escritorio" stroke="none" stroke-width="1" fill="none" fill-rule="evenodd">
        <g id="021-economics" transform="translate(-134.000000, -3128.000000)" filter="url(#filter-1)">
            <g transform="translate(134.000000, 3128.000000)">
                <path d="M38.24,10 L20.76,10 C20.34048,10 20,9.68 20,9.28571429 L20,5.71428571 C20,5.32 20.34048,5 20.76,5 L38.24,5 C38.65952,5 39,5.32 39,5.71428571 L39,9.28571429 C39,9.68 38.65952,10 38.24,10 Z M21.52,8.57142857 L37.48,8.57142857 L37.48,6.42857143 L21.52,6.42857143 L21.52,8.57142857 Z" id="Shape" fill="#000000" fill-rule="nonzero"></path>
                <path d="M30.2857143,18 L21.7142857,18 C21.32,18 21,17.72 21,17.375 L21,13.625 C21,13.28 21.32,13 21.7142857,13 L30.2857143,13 C30.68,13 31,13.28 31,13.625 L31,17.375 C31,17.72 30.68,18 30.2857143,18 Z M22.4285714,16.75 L29.5714286,16.75 L29.5714286,14.25 L22.4285714,14.25 L22.4285714,16.75 Z" id="Shape" fill="#000000" fill-rule="nonzero"></path>
                <path d="M35.2380952,24 L20.7619048,24 C20.3413333,24 20,23.68 20,23.2857143 L20,19.7142857 C20,19.32 20.3413333,19 20.7619048,19 L35.2380952,19 C35.6586667,19 36,19.32 36,19.7142857 L36,23.2857143 C36,23.68 35.6586667,24 35.2380952,24 Z M21.5238095,22.5714286 L34.4761905,22.5714286 L34.4761905,20.4285714 L21.5238095,20.4285714 L21.5238095,22.5714286 Z" id="Shape" fill="#000000" fill-rule="nonzero"></path>
                <path d="M14.3,21 L8.7,21 C8.3136,21 8,20.552 8,20 C8,19.448 8.3136,19 8.7,19 L14.3,19 C14.6864,19 15,19.448 15,20 C15,20.552 14.6864,21 14.3,21 Z" id="Path" fill="#000000" fill-rule="nonzero"></path>
                <path d="M12.3333333,24 L9.66666667,24 C9.29866667,24 9,23.552 9,23 C9,22.448 9.29866667,22 9.66666667,22 L12.3333333,22 C12.7013333,22 13,22.448 13,23 C13,23.552 12.7013333,24 12.3333333,24 Z" id="Path" fill="#000000" fill-rule="nonzero"></path>
                <path d="M14.3,15 L8.7,15 C8.3136,15 8,14.552 8,14 C8,13.448 8.3136,13 8.7,13 L14.3,13 C14.6864,13 15,13.448 15,14 C15,14.552 14.6864,15 14.3,15 Z" id="Path" fill="#000000" fill-rule="nonzero"></path>
                <path d="M12.3333333,17 L9.66666667,17 C9.29866667,17 9,16.552 9,16 C9,15.448 9.29866667,15 9.66666667,15 L12.3333333,15 C12.7013333,15 13,15.448 13,16 C13,16.552 12.7013333,17 12.3333333,17 Z" id="Path" fill="#000000" fill-rule="nonzero"></path>
                <path d="M14.3,9 L8.7,9 C8.3136,9 8,8.552 8,8 C8,7.448 8.3136,7 8.7,7 L14.3,7 C14.6864,7 15,7.448 15,8 C15,8.552 14.6864,9 14.3,9 Z" id="Path" fill="#000000" fill-rule="nonzero"></path>
                <path d="M12.3333333,11 L9.66666667,11 C9.29866667,11 9,10.552 9,10 C9,9.448 9.29866667,9 9.66666667,9 L12.3333333,9 C12.7013333,9 13,9.448 13,10 C13,10.552 12.7013333,11 12.3333333,11 Z" id="Path" fill="#000000" fill-rule="nonzero"></path>
                <path d="M39.2608696,31 L6.73913043,31 C6.33113043,31 6,30.7013333 6,30.3333333 L6,27.6666667 C6,27.2986667 6.33113043,27 6.73913043,27 L39.2608696,27 C39.6688696,27 40,27.2986667 40,27.6666667 L40,30.3333333 C40,30.7013333 39.6688696,31 39.2608696,31 Z M7.47826087,29.6666667 L38.5217391,29.6666667 L38.5217391,28.3333333 L7.47826087,28.3333333 L7.47826087,29.6666667 Z" id="Shape" fill="#000000" fill-rule="nonzero"></path>
                <path d="M42.2857143,30 L38.7142857,30 C38.32,30 38,29.6752 38,29.275 L38,28.55 L8,28.55 L8,29.275 C8,29.6752 7.68,30 7.28571429,30 L3.71428571,30 C3.32,30 3,29.6752 3,29.275 L3,1.725 C3,1.3248 3.32,1 3.71428571,1 L42.2857143,1 C42.68,1 43,1.3248 43,1.725 L43,29.275 C43,29.6752 42.68,30 42.2857143,30 Z M39.4285714,28.55 L41.5714286,28.55 L41.5714286,2.45 L4.42857143,2.45 L4.42857143,28.55 L6.57142857,28.55 L6.57142857,27.825 C6.57142857,27.4248 6.89142857,27.1 7.28571429,27.1 L38.7142857,27.1 C39.1085714,27.1 39.4285714,27.4248 39.4285714,27.825 L39.4285714,28.55 Z" id="Shape" fill="#000000" fill-rule="nonzero"></path>
                <path d="M43.2666667,4 L0.733333333,4 C0.328533333,4 0,3.552 0,3 C0,2.448 0.328533333,2 0.733333333,2 L43.2666667,2 C43.6714667,2 44,2.448 44,3 C44,3.552 43.6714667,4 43.2666667,4 Z" id="Path" fill="#000000" fill-rule="nonzero"></path>
                <path d="M23,4 C22.448,4 22,3.70133333 22,3.33333333 L22,0.666666667 C22,0.298666667 22.448,0 23,0 C23.552,0 24,0.298666667 24,0.666666667 L24,3.33333333 C24,3.70133333 23.552,4 23,4 Z" id="Path" fill="#000000" fill-rule="nonzero"></path>
                <path d="M23,37 C22.448,37 22,36.6864 22,36.3 L22,30.7 C22,30.3136 22.448,30 23,30 C23.552,30 24,30.3136 24,30.7 L24,36.3 C24,36.6864 23.552,37 23,37 Z" id="Path" fill="#000000" fill-rule="nonzero"></path>
                <path d="M22.5,43 C20.5701,43 19,41.4299 19,39.5 C19,37.5701 20.5701,36 22.5,36 C24.4299,36 26,37.5701 26,39.5 C26,41.4299 24.4299,43 22.5,43 Z M22.5,37.4 C21.3422,37.4 20.4,38.3422 20.4,39.5 C20.4,40.6578 21.3422,41.6 22.5,41.6 C23.6578,41.6 24.6,40.6578 24.6,39.5 C24.6,38.3422 23.6578,37.4 22.5,37.4 Z" id="Shape" fill="#000000" fill-rule="nonzero"></path>
            </g>
        </g>
    </g>
</svg>