<?xml version="1.0" encoding="UTF-8"?>
<svg width="43px" height="41px" viewBox="0 0 43 41" version="1.1" xmlns="http://www.w3.org/2000/svg" xmlns:xlink="http://www.w3.org/1999/xlink">
    <title>022-cloud</title>
    <defs>
        <filter id="filter-1">
            <feColorMatrix in="SourceGraphic" type="matrix" values="0 0 0 0 1.000000 0 0 0 0 1.000000 0 0 0 0 1.000000 0 0 0 1.000000 0"></feColorMatrix>
        </filter>
    </defs>
    <g id="Escritorio" stroke="none" stroke-width="1" fill="none" fill-rule="evenodd">
        <g id="022-cloud" transform="translate(-135.000000, -3298.000000)" filter="url(#filter-1)">
            <g transform="translate(135.000000, 3298.000000)">
                <path d="M16.8084231,37 L2.19157692,37 C0.982884615,37 0,36.1033333 0,35.0006667 L0,26.9993333 C0,25.8966667 0.982884615,25 2.19157692,25 L16.8084231,25 C18.0171154,25 19,25.8966667 19,26.9993333 L19,35.0006667 C19,36.1033333 18.0171154,37 16.8084231,37 Z M2.19157692,26.3333333 C1.78892308,26.3333333 1.46153846,26.632 1.46153846,26.9993333 L1.46153846,35.0006667 C1.46153846,35.368 1.78892308,35.6666667 2.19157692,35.6666667 L16.8084231,35.6666667 C17.2110769,35.6666667 17.5384615,35.368 17.5384615,35.0006667 L17.5384615,26.9993333 C17.5384615,26.632 17.2110769,26.3333333 16.8084231,26.3333333 L2.19157692,26.3333333 Z" id="Shape" fill="#000000" fill-rule="nonzero"></path>
                <path d="M11.375,41 L7.625,41 C7.28,41 7,40.72 7,40.375 L7,36.625 C7,36.28 7.28,36 7.625,36 L11.375,36 C11.72,36 12,36.28 12,36.625 L12,40.375 C12,40.72 11.72,41 11.375,41 Z M8.25,39.75 L10.75,39.75 L10.75,37.25 L8.25,37.25 L8.25,39.75 Z" id="Shape" fill="#000000" fill-rule="nonzero"></path>
                <path d="M13.3571429,41 L5.64285714,41 C5.288,41 5,40.552 5,40 C5,39.448 5.288,39 5.64285714,39 L13.3571429,39 C13.712,39 14,39.448 14,40 C14,40.552 13.712,41 13.3571429,41 Z" id="Path" fill="#000000" fill-rule="nonzero"></path>
                <path d="M40.8084231,37 L26.1915769,37 C24.9828846,37 24,36.1033333 24,35.0006667 L24,26.9993333 C24,25.8966667 24.9828846,25 26.1915769,25 L40.8084231,25 C42.0171154,25 43,25.8966667 43,26.9993333 L43,35.0006667 C43,36.1033333 42.0171154,37 40.8084231,37 L40.8084231,37 Z M26.1915769,26.3333333 C25.7889231,26.3333333 25.4615385,26.632 25.4615385,26.9993333 L25.4615385,35.0006667 C25.4615385,35.368 25.7889231,35.6666667 26.1915769,35.6666667 L40.8084231,35.6666667 C41.2110769,35.6666667 41.5384615,35.368 41.5384615,35.0006667 L41.5384615,26.9993333 C41.5384615,26.632 41.2110769,26.3333333 40.8084231,26.3333333 L26.1915769,26.3333333 Z" id="Shape" fill="#000000" fill-rule="nonzero"></path>
                <path d="M35.375,41 L31.625,41 C31.28,41 31,40.72 31,40.375 L31,36.625 C31,36.28 31.28,36 31.625,36 L35.375,36 C35.72,36 36,36.28 36,36.625 L36,40.375 C36,40.72 35.72,41 35.375,41 Z M32.25,39.75 L34.75,39.75 L34.75,37.25 L32.25,37.25 L32.25,39.75 Z" id="Shape" fill="#000000" fill-rule="nonzero"></path>
                <path d="M37.3571429,41 L29.6428571,41 C29.288,41 29,40.552 29,40 C29,39.448 29.288,39 29.6428571,39 L37.3571429,39 C37.712,39 38,39.448 38,40 C38,40.552 37.712,41 37.3571429,41 Z" id="Path" fill="#000000" fill-rule="nonzero"></path>
                <path d="M28.7966,19 L12.2864,19 C9.3716,19 7,16.6074074 7,13.6666296 C7,10.7870741 9.2736,8.43318519 12.1044,8.33677778 C12.0645,8.11159259 12.0449,7.88148148 12.0449,7.64855556 C12.0449,5.47340741 13.7991,3.7042963 15.9551,3.7042963 C16.3072,3.7042963 16.6537,3.75144444 16.9897,3.84574074 C18.2126,1.48833333 20.6185,0 23.2932,0 C27.0571,0 30.1483,2.96259259 30.3975,6.69855556 C33.0967,7.41844444 35,9.87225926 35,12.7405556 C35,16.1922222 32.2168,19 28.7966,19 Z M12.2864,9.74066667 C10.1437,9.74066667 8.4,11.5013333 8.4,13.6666296 C8.4,15.8319259 10.143,17.5925926 12.2864,17.5925926 L28.7966,17.5925926 C31.4454,17.5925926 33.6,15.416037 33.6,12.7405556 C33.6,10.3634444 31.9151,8.35366667 29.5939,7.9617037 C29.2537,7.904 29.0059,7.60562963 29.0101,7.2587037 C29.0101,7.24462963 29.0129,7.19114815 29.0143,7.17707407 C29.0143,3.99844444 26.4481,1.4067037 23.2939,1.4067037 C20.9629,1.4067037 18.8846,2.81622222 18.0005,4.99840741 C17.9277,5.17855556 17.7835,5.3207037 17.6022,5.39037037 C17.4216,5.45933333 17.22,5.45088889 17.0457,5.36574074 C16.6999,5.19685185 16.3331,5.111 15.9558,5.111 C14.5712,5.111 13.4456,6.24888889 13.4456,7.64785185 C13.4456,8.04825926 13.538,8.43388889 13.7193,8.79418519 C13.839,9.03203704 13.8152,9.31774074 13.657,9.53237037 C13.4988,9.7462963 13.2335,9.85396296 12.9724,9.80540741 C12.7274,9.76248148 12.5034,9.74066667 12.2864,9.74066667 Z" id="Shape" fill="#000000" fill-rule="nonzero"></path>
                <path d="M33.2941176,13 C32.9044706,13 32.5882353,12.6830723 32.5882353,12.292572 C32.5882353,9.60293077 30.4155294,7.41485599 27.7444706,7.41485599 C25.1934118,7.41485599 23.4117647,9.38999495 23.4117647,12.2182921 C23.4117647,12.6087923 23.0955294,12.9257201 22.7058824,12.9257201 C22.3162353,12.9257201 22,12.6087923 22,12.2182921 C22,8.61536129 24.4162353,6 27.7444706,6 C31.1934118,6 34,8.8226377 34,12.292572 C34,12.6837797 33.6837647,13 33.2941176,13 Z" id="Path" fill="#000000" fill-rule="nonzero"></path>
                <path d="M17.3582744,10 C17.0697217,10 16.7976372,9.836 16.6888034,9.57 C16.4317551,8.94066667 16,7.74533333 16,6.806 C16.000716,3.054 19.2678779,0 23.2839882,0 C23.6792267,0 24,0.298666667 24,0.666666667 C24,1.03466667 23.6792267,1.33333333 23.2839882,1.33333333 C20.057639,1.33333333 17.4327396,3.78866667 17.4327396,6.80666667 C17.4327396,7.32866667 17.6554193,8.18466667 18.0277455,9.096 C18.1687998,9.44 17.9833527,9.82533333 17.6131746,9.95666667 C17.5294012,9.986 17.4427638,10 17.3582744,10 Z" id="Path" fill="#000000" fill-rule="nonzero"></path>
                <path d="M9.68421053,26 C9.30652632,26 9,25.68 9,25.2857143 L9,21.7142857 C9,21.32 9.30652632,21 9.68421053,21 L21.3157895,21 C21.6934737,21 22,21.32 22,21.7142857 C22,22.1085714 21.6934737,22.4285714 21.3157895,22.4285714 L10.3684211,22.4285714 L10.3684211,25.2857143 C10.3684211,25.68 10.0618947,26 9.68421053,26 Z" id="Path" fill="#000000" fill-rule="nonzero"></path>
                <path d="M21,22 C20.448,22 20,21.72 20,21.375 L20,17.625 C20,17.28 20.448,17 21,17 C21.552,17 22,17.28 22,17.625 L22,21.375 C22,21.72 21.552,22 21,22 Z" id="Path" fill="#000000" fill-rule="nonzero"></path>
                <path d="M33.3157895,26 C32.9381053,26 32.6315789,25.68 32.6315789,25.2857143 L32.6315789,22.4285714 L21.6842105,22.4285714 C21.3065263,22.4285714 21,22.1085714 21,21.7142857 C21,21.32 21.3065263,21 21.6842105,21 L33.3157895,21 C33.6934737,21 34,21.32 34,21.7142857 L34,25.2857143 C34,25.68 33.6934737,26 33.3157895,26 Z" id="Path" fill="#000000" fill-rule="nonzero"></path>
                <path d="M13.25,37 L5.75,37 C5.336,37 5,36.7013333 5,36.3333333 L5,35.01 C5,33.902 6.0425,33 7.32425,33 L11.67575,33 C12.9575,33 14,33.902 14,35.01 L14,36.3333333 C14,36.7013333 13.664,37 13.25,37 Z M6.5,35.6666667 L12.5,35.6666667 L12.5,35.01 C12.5,34.6373333 12.13025,34.3333333 11.67575,34.3333333 L7.32425,34.3333333 C6.86975,34.3333333 6.5,34.6373333 6.5,35.01 L6.5,35.6666667 Z" id="Shape" fill="#000000" fill-rule="nonzero"></path>
                <path d="M11.1666667,32 L7.83333333,32 C7.37333333,32 7,31.7013333 7,31.3333333 L7,28.6666667 C7,28.2986667 7.37333333,28 7.83333333,28 L11.1666667,28 C11.6266667,28 12,28.2986667 12,28.6666667 L12,31.3333333 C12,31.7013333 11.6266667,32 11.1666667,32 Z M8.66666667,30.6666667 L10.3333333,30.6666667 L10.3333333,29.3333333 L8.66666667,29.3333333 L8.66666667,30.6666667 Z" id="Shape" fill="#000000" fill-rule="nonzero"></path>
                <path d="M37.25,37 L29.75,37 C29.336,37 29,36.7013333 29,36.3333333 L29,35.01 C29,33.902 30.0425,33 31.32425,33 L35.67575,33 C36.9575,33 38,33.902 38,35.01 L38,36.3333333 C38,36.7013333 37.664,37 37.25,37 Z M30.5,35.6666667 L36.5,35.6666667 L36.5,35.01 C36.5,34.6373333 36.13025,34.3333333 35.67575,34.3333333 L31.32425,34.3333333 C30.86975,34.3333333 30.5,34.6373333 30.5,35.01 L30.5,35.6666667 Z" id="Shape" fill="#000000" fill-rule="nonzero"></path>
                <path d="M35.1666667,32 L31.8333333,32 C31.3733333,32 31,31.7013333 31,31.3333333 L31,28.6666667 C31,28.2986667 31.3733333,28 31.8333333,28 L35.1666667,28 C35.6266667,28 36,28.2986667 36,28.6666667 L36,31.3333333 C36,31.7013333 35.6266667,32 35.1666667,32 Z M32.6666667,30.6666667 L34.3333333,30.6666667 L34.3333333,29.3333333 L32.6666667,29.3333333 L32.6666667,30.6666667 Z" id="Shape" fill="#000000" fill-rule="nonzero"></path>
            </g>
        </g>
    </g>
</svg>