<?xml version="1.0" encoding="UTF-8"?>
<svg width="47px" height="47px" viewBox="0 0 47 47" version="1.1" xmlns="http://www.w3.org/2000/svg" xmlns:xlink="http://www.w3.org/1999/xlink">
    <title>028-haptic</title>
    <defs>
        <filter id="filter-1">
            <feColorMatrix in="SourceGraphic" type="matrix" values="0 0 0 0 1.000000 0 0 0 0 1.000000 0 0 0 0 1.000000 0 0 0 1.000000 0"></feColorMatrix>
        </filter>
    </defs>
    <g id="Escritorio" stroke="none" stroke-width="1" fill="none" fill-rule="evenodd">
        <g id="028-haptic" transform="translate(-773.000000, -3658.000000)" filter="url(#filter-1)">
            <g transform="translate(773.000000, 3658.000000)">
                <path d="M31,33 C30.448,33 30,32.6416 30,32.2 L30,29.8 C30,29.3584 30.448,29 31,29 C31.552,29 32,29.3584 32,29.8 L32,32.2 C32,32.6416 31.552,33 31,33 Z" id="Path" fill="#000000" fill-rule="nonzero"></path>
                <path d="M27,32 C26.448,32 26,31.6266667 26,31.1666667 L26,27.8333333 C26,27.3733333 26.448,27 27,27 C27.552,27 28,27.3733333 28,27.8333333 L28,31.1666667 C28,31.6266667 27.552,32 27,32 Z" id="Path" fill="#000000" fill-rule="nonzero"></path>
                <path d="M22.9960159,32 L22.9950199,32 C22.44522,32 21.9990056,31.6507778 22,31.2214444 L22.0079698,25.777 C22.0089658,25.3476667 22.4541842,25 23.0039841,25 L23.0049801,25 C23.55478,25 24.0009944,25.3492222 24,25.7785556 L23.9920302,31.223 C23.9910342,31.6523333 23.5448198,32 22.9960159,32 Z" id="Path" fill="#000000" fill-rule="nonzero"></path>
                <path d="M31.6378351,47 L21.7744775,47 C20.74574,47 19.9785459,46.53965 19.6131777,45.7042 C19.3445012,45.0904 19.3445012,44.4084 19.3445012,43.910075 L19.3445012,43.61945 C18.1612153,43.015725 15.3880624,41.14875 15.3880624,36.925 C15.3880624,34.9875 14.864183,31.55115 13.700711,29.9748 C12.3113606,28.09155 13.3567417,26.98485 13.7110142,26.69035 C14.7627358,25.8146 16.6727954,25.8828 17.6420912,26.830625 C17.9630764,27.143725 18.2682104,27.576175 18.5582858,28.12565 L18.5582858,19.1 C18.5535305,18.2351 18.9141434,17.358575 19.5236188,16.7595 C20.0221365,16.2697 20.6593514,16 21.3195504,16 C22.9823326,16 24.0998363,17.6027 24.0998363,19.1 L24.1037991,24.0507 C24.4445981,23.860825 24.8305728,23.75 25.2490423,23.75 C26.4846369,23.75 27.4404593,24.660625 27.8446628,25.733225 C28.2338077,25.463525 28.6903199,25.3 29.1959705,25.3 C30.6970713,25.3 31.7892133,26.618275 31.9960703,27.949725 C32.3503428,27.745125 32.7521686,27.625 33.1912446,27.625 C34.842931,27.625 35.9945146,29.2587 35.9945146,30.725 L35.9976848,37.531825 C36.0111583,41.1038 36.0119509,41.3177 34.6083344,43.119575 L34.4030625,43.384625 L34.4030625,43.9 C34.3975146,44.792025 34.3832486,47 31.6378351,47 L31.6378351,47 Z M15.5806535,27.627325 C15.2557056,27.627325 14.9347204,27.70715 14.7381666,27.870675 C14.4132187,28.141925 14.6937835,28.67125 14.9862366,29.067275 C16.4342361,31.02725 16.9739667,34.92705 16.9739667,36.924225 C16.9739667,41.073575 20.2749618,42.346125 20.4152442,42.39805 C20.7227558,42.511975 20.9304055,42.801825 20.9304055,43.124225 L20.9304055,43.899225 C20.9304055,44.2937 20.9304055,44.771875 21.0714804,45.094275 C21.1491509,45.274075 21.2680343,45.45 21.7744775,45.45 L31.6378351,45.45 C32.7077855,45.45 32.8108178,45.03925 32.8179508,43.95115 L32.8179508,43.125 C32.8179508,42.9576 32.8734297,42.794075 32.9764619,42.66 L33.3473781,42.18105 C34.4244615,40.797675 34.4244615,40.797675 34.4125731,37.538025 L34.4094029,30.725 C34.4094029,30.101125 33.8982044,29.175 33.1912446,29.175 C32.5183646,29.175 32.0317353,30.101125 32.0317353,30.725 C32.0317353,31.1528 31.6766703,31.5 31.2391795,31.5 C30.8016887,31.5 30.4466236,31.1528 30.4466236,30.725 L30.4466236,28.4 C30.4466236,27.7831 29.948106,26.85 29.1959705,26.85 C28.5999685,26.85 28.0689561,27.717225 28.0689561,28.4 C28.0689561,28.827025 27.7162687,29.17345 27.2795704,29.175 C27.2787779,29.175 27.2779853,29.175 27.2764002,29.175 C26.8412871,29.175 26.4870146,28.831675 26.4838444,28.4062 L26.4711635,26.8562 C26.4711635,26.85465 26.4711635,26.852325 26.4711635,26.85 C26.4711635,26.226125 25.9583798,25.3 25.2490423,25.3 C24.6332264,25.3 24.1061768,26.1525 24.1061768,26.85 C24.1061768,27.2778 23.7511118,27.625 23.3136209,27.625 C22.8761301,27.625 22.5210651,27.278575 22.5210651,26.850775 L22.5147246,19.100775 C22.5147246,18.3684 22.0035261,17.55 21.3195504,17.55 C21.0778209,17.55 20.8519425,17.651525 20.647463,17.853025 C20.3383663,18.156825 20.1410199,18.6443 20.1433975,19.096125 L20.1433975,33.05 C20.1433975,33.4592 19.8176571,33.79865 19.3991876,33.824225 C19.0908833,33.844375 18.6890575,33.726575 18.540057,33.06395 C17.7189692,29.406725 16.8542907,28.25275 16.5206247,27.92725 C16.318523,27.72885 15.9468143,27.627325 15.5806535,27.627325 Z" id="Shape" fill="#000000" fill-rule="nonzero"></path>
                <path d="M3,19 C2.448,19 2,18.6266667 2,18.1666667 L2,9.83333333 C2,9.37333333 2.448,9 3,9 C3.552,9 4,9.37333333 4,9.83333333 L4,18.1666667 C4,18.6266667 3.552,19 3,19 Z" id="Path" fill="#000000" fill-rule="nonzero"></path>
                <path d="M3,6 C2.448,6 2,5.70133333 2,5.33333333 L2,4.66666667 C2,4.29866667 2.448,4 3,4 C3.552,4 4,4.29866667 4,4.66666667 L4,5.33333333 C4,5.70133333 3.552,6 3,6 Z" id="Path" fill="#000000" fill-rule="nonzero"></path>
                <path d="M42.7016667,14 L42.2991667,14 C41.0316667,14 40,13.07225 40,11.9315 L40,10.06925 C40,8.9285 41.0316667,8 42.2991667,8 L42.7016667,8 C43.9691667,8 45,8.9285 45,10.06925 L45,11.9315 C45,13.07225 43.9691667,14 42.7016667,14 Z M42.2991667,9.5 C41.95,9.5 41.6666667,9.755 41.6666667,10.06925 L41.6666667,11.9315 C41.6666667,12.245 41.95,12.5 42.2991667,12.5 L42.7016667,12.5 C43.05,12.5 43.3333333,12.245 43.3333333,11.9315 L43.3333333,10.06925 C43.3333333,9.755 43.05,9.5 42.7016667,9.5 L42.2991667,9.5 Z" id="Shape" fill="#000000" fill-rule="nonzero"></path>
                <path d="M38.2272727,22 L23.5354091,22 C23.1088636,22 22.7626818,21.6487857 22.7626818,21.2150714 L22.7611364,18.8579286 C22.7611364,18.1154286 22.2627273,17.2857143 21.5958636,17.2857143 C21.3601818,17.2857143 21.1399545,17.3886429 20.9405909,17.5929286 C20.6392273,17.9009286 20.4468182,18.3951429 20.4491364,18.8532143 L20.4491364,21.2142857 C20.4491364,21.648 20.1029545,22 19.6764091,22 L5.77272727,22 C5.34618182,22 5,21.648 5,21.2142857 L5,0.785714286 C5,0.352 5.34618182,0 5.77272727,0 L38.2272727,0 C38.6538182,0 39,0.352 39,0.785714286 L39,21.2142857 C39,21.648 38.6538182,22 38.2272727,22 Z M24.3081364,20.4285714 L37.4545455,20.4285714 L37.4545455,1.57142857 L6.54545455,1.57142857 L6.54545455,20.4285714 L18.9036818,20.4285714 L18.9036818,18.8571429 C18.8990455,17.9802857 19.2506364,17.0916429 19.8448636,16.4842857 C20.3309091,15.9877143 20.9521818,15.7142857 21.5958636,15.7142857 C23.2170455,15.7142857 24.3065909,17.3391429 24.3065909,18.8571429 L24.3081364,20.4285714 Z" id="Shape" fill="#000000" fill-rule="nonzero"></path>
                <path d="M5.25,22 L2.71125,22 C1.2165,22 0,20.7255714 0,19.1596429 L0,2.84035714 C0,1.27442857 1.2165,0 2.71125,0 L5.25,0 C5.664,0 6,0.352 6,0.785714286 L6,21.2142857 C6,21.648 5.664,22 5.25,22 Z M2.71125,1.57142857 C2.043,1.57142857 1.5,2.14107143 1.5,2.84035714 L1.5,19.1604286 C1.5,19.8589286 2.043,20.4285714 2.71125,20.4285714 L4.5,20.4285714 L4.5,1.57142857 L2.71125,1.57142857 Z" id="Shape" fill="#000000" fill-rule="nonzero"></path>
                <path d="M43.9875,22 L37.8333333,22 C37.3733333,22 37,21.648 37,21.2142857 L37,0.785714286 C37,0.352 37.3733333,0 37.8333333,0 L43.9875,0 C45.6483333,0 47,1.27442857 47,2.84035714 L47,19.1604286 C47,20.7255714 45.6483333,22 43.9875,22 Z M38.6666667,20.4285714 L43.9875,20.4285714 C44.7291667,20.4285714 45.3333333,19.8589286 45.3333333,19.1596429 L45.3333333,2.84035714 C45.3333333,2.14107143 44.7291667,1.57142857 43.9875,1.57142857 L38.6666667,1.57142857 L38.6666667,20.4285714 Z" id="Shape" fill="#000000" fill-rule="nonzero"></path>
                <path d="M31.2258065,8 L8.77419355,8 C8.34683871,8 8,7.552 8,7 C8,6.448 8.34683871,6 8.77419355,6 L31.2258065,6 C31.6531613,6 32,6.448 32,7 C32,7.552 31.6531613,8 31.2258065,8 Z" id="Path" fill="#000000" fill-rule="nonzero"></path>
                <path d="M35.3333333,8 L34.6666667,8 C34.2986667,8 34,7.552 34,7 C34,6.448 34.2986667,6 34.6666667,6 L35.3333333,6 C35.7013333,6 36,6.448 36,7 C36,7.552 35.7013333,8 35.3333333,8 Z" id="Path" fill="#000000" fill-rule="nonzero"></path>
                <path d="M35.2258065,5 L12.7741935,5 C12.3468387,5 12,4.552 12,4 C12,3.448 12.3468387,3 12.7741935,3 L35.2258065,3 C35.6531613,3 36,3.448 36,4 C36,4.552 35.6531613,5 35.2258065,5 Z" id="Path" fill="#000000" fill-rule="nonzero"></path>
                <path d="M9.33333333,5 L8.66666667,5 C8.29866667,5 8,4.552 8,4 C8,3.448 8.29866667,3 8.66666667,3 L9.33333333,3 C9.70133333,3 10,3.448 10,4 C10,4.552 9.70133333,5 9.33333333,5 Z" id="Path" fill="#000000" fill-rule="nonzero"></path>
                <path d="M27.2,23 C26.7584,23 26.4,22.6266667 26.4,22.1666667 L26.4,19.25 C26.4,16.7225 24.4264,14.6666667 22,14.6666667 C19.5736,14.6666667 17.6,16.7225 17.6,19.25 L17.6,22.1666667 C17.6,22.6266667 17.2416,23 16.8,23 C16.3584,23 16,22.6266667 16,22.1666667 L16,19.25 C16,15.8033333 18.692,13 22,13 C25.3088,13 28,15.8033333 28,19.25 L28,22.1666667 C28,22.6266667 27.6416,23 27.2,23 Z" id="Path" fill="#000000" fill-rule="nonzero"></path>
                <path d="M30.2173913,19 C29.7853913,19 29.4347826,18.6266667 29.4347826,18.1666667 C29.4347826,13.8908333 26.2386087,10.6666667 22,10.6666667 C17.7613913,10.6666667 14.5652174,13.8908333 14.5652174,18.1666667 C14.5652174,18.6266667 14.2146087,19 13.7826087,19 C13.3506087,19 13,18.6266667 13,18.1666667 C13,13.0266667 16.9537391,9 22,9 C27.0470435,9 31,13.0266667 31,18.1666667 C31,18.6266667 30.6493913,19 30.2173913,19 Z" id="Path" fill="#000000" fill-rule="nonzero"></path>
            </g>
        </g>
    </g>
</svg>